<svg width="114" height="124" viewBox="0 0 114 124" fill="none" xmlns="http://www.w3.org/2000/svg">
<path d="M0.457345 116.542L6.18489 99.6094H10.8669L16.5945 116.542H12.7534L11.617 113.087H5.41213L4.27571 116.542H0.457345ZM6.38945 110.019H10.6397L8.04862 102.019H9.00321L6.38945 110.019ZM18.1041 116.542V99.3367H21.5134V110.36L20.2406 109.951L25.7182 104.132H29.9229L25.4227 109.133L29.9002 116.542H26.0363L22.2862 110.246L24.2635 109.746L20.4679 113.883L21.5134 111.905V116.542H18.1041ZM35.2626 116.815C34.3687 116.815 33.5959 116.671 32.9444 116.383C32.2928 116.095 31.7928 115.686 31.4443 115.156C31.0958 114.61 30.9215 113.966 30.9215 113.224C30.9215 112.527 31.0806 111.913 31.3988 111.383C31.717 110.837 32.2019 110.383 32.8534 110.019C33.5201 109.655 34.3459 109.398 35.3308 109.246L39.1265 108.633V111.133L35.9445 111.701C35.4596 111.792 35.0884 111.951 34.8308 112.178C34.5732 112.39 34.4444 112.701 34.4444 113.11C34.4444 113.489 34.5884 113.784 34.8763 113.996C35.1642 114.209 35.5202 114.315 35.9445 114.315C36.5051 114.315 36.9976 114.193 37.4218 113.951C37.8461 113.709 38.1719 113.383 38.3992 112.974C38.6416 112.549 38.7628 112.087 38.7628 111.587V108.36C38.7628 107.89 38.5734 107.496 38.1946 107.178C37.831 106.86 37.3309 106.701 36.6945 106.701C36.0884 106.701 35.5505 106.867 35.0808 107.201C34.6263 107.534 34.2929 107.973 34.0808 108.519L31.3534 107.223C31.5958 106.526 31.9822 105.928 32.5125 105.428C33.0428 104.928 33.6792 104.541 34.4217 104.269C35.1642 103.996 35.9748 103.86 36.8536 103.86C37.8991 103.86 38.8234 104.049 39.6265 104.428C40.4296 104.807 41.0508 105.337 41.4902 106.019C41.9448 106.686 42.1721 107.466 42.1721 108.36V116.542H38.9901V114.542L39.7629 114.406C39.3992 114.951 38.9977 115.406 38.5583 115.769C38.1188 116.118 37.6264 116.375 37.0809 116.542C36.5354 116.724 35.9293 116.815 35.2626 116.815ZM50.5136 116.815C49.3014 116.815 48.218 116.527 47.2634 115.951C46.3088 115.375 45.5512 114.595 44.9906 113.61C44.4451 112.625 44.1723 111.534 44.1723 110.337C44.1723 109.125 44.4527 108.034 45.0133 107.064C45.5739 106.079 46.3315 105.299 47.2861 104.723C48.2407 104.148 49.309 103.86 50.4908 103.86C51.4 103.86 52.203 104.034 52.9 104.382C53.6122 104.716 54.1728 105.193 54.5819 105.814L54.0592 106.496V99.3367H57.4684V116.542H54.2865V114.269L54.6047 114.974C54.1804 115.58 53.6046 116.042 52.8773 116.36C52.15 116.663 51.3621 116.815 50.5136 116.815ZM50.9227 113.746C51.5439 113.746 52.0894 113.603 52.5591 113.315C53.0288 113.027 53.3925 112.625 53.6501 112.11C53.9228 111.595 54.0592 111.004 54.0592 110.337C54.0592 109.671 53.9228 109.08 53.6501 108.564C53.3925 108.049 53.0288 107.648 52.5591 107.36C52.0894 107.072 51.5439 106.928 50.9227 106.928C50.3014 106.928 49.7408 107.079 49.2408 107.383C48.7559 107.67 48.3771 108.072 48.1044 108.587C47.8316 109.087 47.6952 109.671 47.6952 110.337C47.6952 111.004 47.8316 111.595 48.1044 112.11C48.3771 112.625 48.7559 113.027 49.2408 113.315C49.7408 113.603 50.3014 113.746 50.9227 113.746ZM65.9427 116.815C64.6245 116.815 63.4805 116.527 62.5108 115.951C61.541 115.36 60.791 114.572 60.2607 113.587C59.7303 112.602 59.4652 111.512 59.4652 110.314C59.4652 109.072 59.7379 107.966 60.2834 106.996C60.844 106.026 61.5941 105.261 62.5335 104.701C63.4729 104.14 64.5336 103.86 65.7155 103.86C66.7004 103.86 67.5716 104.019 68.3292 104.337C69.0868 104.64 69.7232 105.072 70.2384 105.632C70.7687 106.193 71.1703 106.845 71.443 107.587C71.7158 108.314 71.8521 109.11 71.8521 109.974C71.8521 110.216 71.837 110.458 71.8067 110.701C71.7915 110.928 71.7536 111.125 71.693 111.292H62.3971V108.792H69.7611L68.1474 109.974C68.2989 109.322 68.2913 108.746 68.1247 108.246C67.958 107.731 67.6625 107.329 67.2383 107.042C66.8292 106.739 66.3216 106.587 65.7155 106.587C65.1245 106.587 64.6169 106.731 64.1927 107.019C63.7684 107.307 63.4502 107.731 63.2381 108.292C63.0259 108.852 62.9426 109.534 62.9881 110.337C62.9275 111.034 63.0108 111.648 63.2381 112.178C63.4654 112.709 63.8139 113.125 64.2836 113.428C64.7533 113.716 65.3215 113.86 65.9882 113.86C66.5943 113.86 67.1095 113.739 67.5337 113.496C67.9731 113.254 68.3141 112.921 68.5565 112.496L71.2839 113.792C71.0415 114.398 70.6551 114.928 70.1248 115.383C69.6096 115.837 68.9959 116.194 68.2838 116.451C67.5716 116.694 66.7913 116.815 65.9427 116.815ZM73.8597 116.542V104.132H77.0417V107.155L76.7007 106.655C76.8826 105.701 77.322 104.996 78.019 104.541C78.716 104.087 79.5493 103.86 80.5191 103.86C81.5494 103.86 82.451 104.125 83.2238 104.655C84.0117 105.17 84.5041 105.867 84.7011 106.746L83.7238 106.837C84.1329 105.822 84.7163 105.072 85.4739 104.587C86.2315 104.102 87.1179 103.86 88.1331 103.86C89.0271 103.86 89.815 104.057 90.4968 104.451C91.1939 104.845 91.7393 105.398 92.1333 106.11C92.5272 106.807 92.7242 107.625 92.7242 108.564V116.542H89.315V109.292C89.315 108.807 89.2241 108.39 89.0422 108.042C88.8756 107.693 88.6331 107.42 88.3149 107.223C87.9967 107.026 87.6103 106.928 87.1558 106.928C86.7164 106.928 86.33 107.026 85.9966 107.223C85.6784 107.42 85.4284 107.693 85.2466 108.042C85.0799 108.39 84.9966 108.807 84.9966 109.292V116.542H81.5873V109.292C81.5873 108.807 81.4964 108.39 81.3146 108.042C81.1479 107.693 80.9055 107.42 80.5873 107.223C80.2691 107.026 79.8827 106.928 79.4281 106.928C78.9887 106.928 78.6023 107.026 78.269 107.223C77.9508 107.42 77.7008 107.693 77.5189 108.042C77.3523 108.39 77.2689 108.807 77.2689 109.292V116.542H73.8597ZM94.9678 116.542V104.132H98.377V116.542H94.9678ZM94.9678 103.019V99.6094H98.377V103.019H94.9678ZM100.872 116.542V99.3367H104.281V110.36L103.008 109.951L108.486 104.132H112.691L108.19 109.133L112.668 116.542H108.804L105.054 110.246L107.031 109.746L103.236 113.883L104.281 111.905V116.542H100.872Z" fill="#4B8579"/>
<g clip-path="url(#clip0_1745_8153)">
<path d="M68.3751 6.49427C65.854 4.86153 62.9145 3.9928 59.9109 3.9928C56.9073 3.9928 53.9677 4.86153 51.4466 6.49427L12 31.9389L27.9703 42.2398V81.5028L29.1401 82.6726C29.5154 83.0439 38.5386 91.8276 59.9109 91.8276C81.2831 91.8276 90.3064 83.0439 90.6817 82.6726L91.8515 81.5028V42.2398L99.8366 37.0894V79.8498H107.822V31.9389L68.3751 6.49427ZM83.8663 77.9174C76.6511 82.2381 68.3083 84.3015 59.9109 83.8424C51.5139 84.3025 43.1712 82.2404 35.9554 77.9214V47.3902L51.4466 57.3716C53.9663 59.0082 56.9064 59.8792 59.9109 59.8792C62.9154 59.8792 65.8555 59.0082 68.3751 57.3716L83.8663 47.3902V77.9174ZM64.0472 50.6721C62.8162 51.4728 61.3793 51.899 59.9109 51.899C58.4424 51.899 57.0055 51.4728 55.7746 50.6721L26.7326 31.9389L55.7746 13.2058C57.0055 12.4051 58.4424 11.9789 59.9109 11.9789C61.3793 11.9789 62.8162 12.4051 64.0472 13.2058L93.0892 31.9389L64.0472 50.6721Z" fill="#4B8579"/>
</g>
<defs>
<clipPath id="clip0_1745_8153">
<rect width="95.8218" height="95.8218" fill="white" transform="translate(12)"/>
</clipPath>
</defs>
</svg>
