<svg width="154" height="123" viewBox="0 0 154 123" fill="none" xmlns="http://www.w3.org/2000/svg">
<g filter="url(#filter0_d_1745_8152)">
<path d="M4.72166 114H10.2447C15.7222 114 19.2678 110.432 19.2678 105.522C19.2678 100.613 15.7449 97.0674 10.2447 97.0674H4.72166V114ZM8.24456 110.932V100.136H10.3356C13.6312 100.136 15.7449 102.227 15.7449 105.522C15.7449 108.818 13.6312 110.932 10.3356 110.932H8.24456ZM27.4332 114.273C31.0924 114.273 34.0698 111.545 34.0698 107.795C34.0698 104.045 31.0924 101.318 27.4332 101.318C23.7512 101.318 20.7737 104.045 20.7737 107.795C20.7737 111.545 23.7512 114.273 27.4332 114.273ZM27.4332 111.204C25.5694 111.204 24.2966 109.795 24.2966 107.795C24.2966 105.818 25.5694 104.386 27.4332 104.386C29.2742 104.386 30.5469 105.818 30.5469 107.795C30.5469 109.795 29.2742 111.204 27.4332 111.204ZM36.0783 114H39.4875V110.204L40.8512 108.704L44.0105 114H47.8743L43.3968 106.591L47.897 101.59H43.6923L39.4875 106.068V96.7946H36.0783V114ZM53.8505 114.273C55.4187 114.273 56.6915 113.705 57.3279 112.477V114H60.5099V101.59H57.1006V108.841C57.1006 110.273 56.1687 111.204 54.8278 111.204C53.4868 111.204 52.5549 110.273 52.5549 108.841V101.59H49.1457V109.113C49.1457 112.204 50.8276 114.273 53.8505 114.273ZM63.0016 114H66.4109V106.75C66.4109 105.318 67.2291 104.386 68.5701 104.386C69.9111 104.386 70.7293 105.318 70.7293 106.75V114H74.1385V106.75C74.1385 105.318 74.9568 104.386 76.2977 104.386C77.6387 104.386 78.4569 105.318 78.4569 106.75V114H81.8662V106.022C81.8662 103.204 79.957 101.318 77.2751 101.318C75.6613 101.318 74.3204 101.931 73.434 103.227C72.7294 102.045 71.2975 101.318 69.6611 101.318C68.0928 101.318 66.82 101.886 66.1836 103.113V101.59H63.0016V114ZM90.0873 114.273C92.6329 114.273 94.6784 113.068 95.4285 111.25L92.701 109.954C92.2238 110.795 91.3373 111.318 90.1327 111.318C88.4508 111.318 87.3599 110.318 87.1553 108.75H95.8376C95.9512 108.409 95.9967 107.932 95.9967 107.432C95.9967 104 93.792 101.318 89.86 101.318C86.3144 101.318 83.6097 104.068 83.6097 107.772C83.6097 111.364 86.1553 114.273 90.0873 114.273ZM89.86 104.045C91.2692 104.045 92.2465 104.931 92.3829 106.25H87.2235C87.5417 104.818 88.519 104.045 89.86 104.045ZM98.0042 114H101.413V106.75C101.413 105.318 102.345 104.386 103.686 104.386C105.027 104.386 105.959 105.318 105.959 106.75V114H109.368V106.022C109.368 103.204 107.459 101.318 104.664 101.318C103.095 101.318 101.823 101.886 101.186 103.113V101.59H98.0042V114ZM117.588 114.136C118.11 114.136 118.724 114.068 119.179 114V111.113C118.861 111.159 118.588 111.182 118.383 111.182C116.951 111.182 116.269 110.568 116.269 109.295V104.545H119.179V101.59H116.269V98.772H112.86V99.6811C112.86 100.954 112.156 101.59 110.883 101.59H110.769V104.545H112.86V109.523C112.86 112.432 114.588 114.136 117.588 114.136ZM125.018 114.273C126.586 114.273 127.768 113.818 128.745 112.841V114H131.927V105.818C131.927 103.159 129.745 101.318 126.609 101.318C123.972 101.318 121.836 102.613 121.108 104.681L123.836 105.977C124.245 104.886 125.222 104.159 126.449 104.159C127.722 104.159 128.518 104.886 128.518 105.818V106.159L125.086 106.704C122.108 107.181 120.676 108.591 120.676 110.682C120.676 112.932 122.336 114.273 125.018 114.273ZM124.199 110.568C124.199 109.75 124.722 109.341 125.699 109.159L128.518 108.659V109.045C128.518 110.568 127.381 111.773 125.699 111.773C124.836 111.773 124.199 111.341 124.199 110.568ZM139.291 114.273C142.178 114.273 144.087 112.727 144.087 110.409C144.087 108.636 142.973 107.386 140.905 106.772L138.928 106.181C137.996 105.909 137.587 105.568 137.587 105.068C137.587 104.431 138.109 104.045 138.996 104.045C140.2 104.045 141.246 104.727 141.609 105.75L144.132 104.568C143.36 102.522 141.428 101.318 138.996 101.318C136.2 101.318 134.291 102.886 134.291 105.181C134.291 106.954 135.427 108.295 137.45 108.863L139.564 109.454C140.382 109.682 140.791 110.023 140.791 110.545C140.791 111.25 140.246 111.659 139.291 111.659C137.95 111.659 136.814 110.863 136.177 109.523L133.677 110.704C134.405 112.886 136.564 114.273 139.291 114.273ZM146.124 100.477H149.534V97.0674H146.124V100.477ZM146.124 114H149.534V101.59H146.124V114Z" fill="#4B8579"/>
</g>
<g clip-path="url(#clip0_1745_8152)">
<g filter="url(#filter1_d_1745_8152)">
<path d="M128.275 10.78C128.275 7.92093 126.915 5.17901 124.494 3.15737C122.073 1.13574 118.789 0 115.365 0L72.3342 0C68.9104 0 65.6269 1.13574 63.2059 3.15737C60.7849 5.17901 59.4249 7.92093 59.4249 10.78V17.9666H55.1218C51.698 17.9666 48.4145 19.1023 45.9935 21.124C43.5725 23.1456 42.2124 25.8875 42.2124 28.7465V35.9332H37.9093C34.4856 35.9332 31.202 37.0689 28.7811 39.0905C26.3601 41.1122 25 43.8541 25 46.7131V86.2396H93.8497V68.273H111.062V50.3064H128.275V10.78ZM37.9093 43.1198H80.9404C82.0817 43.1198 83.1762 43.4984 83.9832 44.1723C84.7901 44.8461 85.2435 45.7601 85.2435 46.7131V48.8188L68.0311 63.1921L59.6529 56.1923L33.6062 74.8344V46.7131C33.6062 45.7601 34.0596 44.8461 34.8666 44.1723C35.6736 43.4984 36.7681 43.1198 37.9093 43.1198V43.1198ZM85.2435 79.053H40.9215L59.1839 65.9805L68.0311 73.354L85.2435 58.9807V79.053ZM102.456 61.0864H93.8497V46.7131C93.8497 43.8541 92.4896 41.1122 90.0687 39.0905C87.6477 37.0689 84.3642 35.9332 80.9404 35.9332H50.8186V28.7465C50.8186 27.7935 51.272 26.8796 52.079 26.2057C52.886 25.5318 53.9805 25.1532 55.1218 25.1532H98.1528C99.2941 25.1532 100.389 25.5318 101.196 26.2057C102.003 26.8796 102.456 27.7935 102.456 28.7465V61.0864ZM119.668 43.1198H111.062V28.7465C111.062 25.8875 109.702 23.1456 107.281 21.124C104.86 19.1023 101.577 17.9666 98.1528 17.9666H68.0311V10.78C68.0311 9.82694 68.4844 8.91297 69.2914 8.23909C70.0984 7.56521 71.1929 7.18663 72.3342 7.18663H115.365C116.507 7.18663 117.601 7.56521 118.408 8.23909C119.215 8.91297 119.668 9.82694 119.668 10.78V43.1198ZM42.2124 53.8998C42.2124 53.1891 42.4648 52.4943 42.9376 51.9034C43.4105 51.3125 44.0825 50.8519 44.8688 50.58C45.6551 50.308 46.5203 50.2368 47.355 50.3755C48.1898 50.5141 48.9565 50.8564 49.5583 51.3589C50.1601 51.8614 50.5699 52.5017 50.736 53.1987C50.902 53.8958 50.8168 54.6183 50.4911 55.2749C50.1654 55.9314 49.6139 56.4926 48.9062 56.8875C48.1986 57.2823 47.3666 57.4931 46.5155 57.4931C45.3743 57.4931 44.2798 57.1145 43.4728 56.4406C42.6658 55.7667 42.2124 54.8528 42.2124 53.8998Z" fill="#4B8579"/>
</g>
</g>
<defs>
<filter id="filter0_d_1745_8152" x="0.72168" y="96.7946" width="152.812" height="25.4781" filterUnits="userSpaceOnUse" color-interpolation-filters="sRGB">
<feFlood flood-opacity="0" result="BackgroundImageFix"/>
<feColorMatrix in="SourceAlpha" type="matrix" values="0 0 0 0 0 0 0 0 0 0 0 0 0 0 0 0 0 0 127 0" result="hardAlpha"/>
<feOffset dy="4"/>
<feGaussianBlur stdDeviation="2"/>
<feComposite in2="hardAlpha" operator="out"/>
<feColorMatrix type="matrix" values="0 0 0 0 0 0 0 0 0 0 0 0 0 0 0 0 0 0 0.25 0"/>
<feBlend mode="normal" in2="BackgroundImageFix" result="effect1_dropShadow_1745_8152"/>
<feBlend mode="normal" in="SourceGraphic" in2="effect1_dropShadow_1745_8152" result="shape"/>
</filter>
<filter id="filter1_d_1745_8152" x="21" y="0" width="111.274" height="94.2396" filterUnits="userSpaceOnUse" color-interpolation-filters="sRGB">
<feFlood flood-opacity="0" result="BackgroundImageFix"/>
<feColorMatrix in="SourceAlpha" type="matrix" values="0 0 0 0 0 0 0 0 0 0 0 0 0 0 0 0 0 0 127 0" result="hardAlpha"/>
<feOffset dy="4"/>
<feGaussianBlur stdDeviation="2"/>
<feComposite in2="hardAlpha" operator="out"/>
<feColorMatrix type="matrix" values="0 0 0 0 0 0 0 0 0 0 0 0 0 0 0 0 0 0 0.25 0"/>
<feBlend mode="normal" in2="BackgroundImageFix" result="effect1_dropShadow_1745_8152"/>
<feBlend mode="normal" in="SourceGraphic" in2="effect1_dropShadow_1745_8152" result="shape"/>
</filter>
<clipPath id="clip0_1745_8152">
<rect width="103.275" height="86.2396" fill="white" transform="translate(25)"/>
</clipPath>
</defs>
</svg>
