<svg width="102" height="134" viewBox="0 0 102 134" fill="none" xmlns="http://www.w3.org/2000/svg">
<path d="M12.7137 129H18.2367C23.7143 129 27.2599 125.432 27.2599 120.522C27.2599 115.613 23.737 112.067 18.2367 112.067H12.7137V129ZM16.2366 125.932V115.136H18.3276C21.6233 115.136 23.737 117.227 23.737 120.522C23.737 123.818 21.6233 125.932 18.3276 125.932H16.2366ZM29.2658 115.477H32.6751V112.067H29.2658V115.477ZM29.2658 129H32.6751V116.59H29.2658V129ZM40.0338 129.273C42.9203 129.273 44.8295 127.727 44.8295 125.409C44.8295 123.636 43.7158 122.386 41.6475 121.772L39.6701 121.181C38.7382 120.909 38.3291 120.568 38.3291 120.068C38.3291 119.431 38.8519 119.045 39.7383 119.045C40.9429 119.045 41.9884 119.727 42.3521 120.75L44.8749 119.568C44.1021 117.522 42.1702 116.318 39.7383 116.318C36.9427 116.318 35.0335 117.886 35.0335 120.181C35.0335 121.954 36.1699 123.295 38.1928 123.863L40.3065 124.454C41.1247 124.682 41.5338 125.023 41.5338 125.545C41.5338 126.25 40.9884 126.659 40.0338 126.659C38.6928 126.659 37.5564 125.863 36.92 124.523L34.4199 125.704C35.1472 127.886 37.3064 129.273 40.0338 129.273ZM46.867 129H50.2763V125.204L51.64 123.704L54.7992 129H58.663L54.1855 121.591L58.6858 116.59H54.481L50.2763 121.068V111.795H46.867V129ZM64.0255 129.273C65.5938 129.273 66.7756 128.818 67.753 127.841V129H70.9349V120.818C70.9349 118.159 68.753 116.318 65.6165 116.318C62.98 116.318 60.8435 117.613 60.1162 119.681L62.8436 120.977C63.2527 119.886 64.2301 119.159 65.4574 119.159C66.7302 119.159 67.5257 119.886 67.5257 120.818V121.159L64.0937 121.704C61.1163 122.181 59.6844 123.591 59.6844 125.682C59.6844 127.932 61.3436 129.273 64.0255 129.273ZM63.2073 125.568C63.2073 124.75 63.73 124.341 64.7074 124.159L67.5257 123.659V124.045C67.5257 125.568 66.3893 126.773 64.7074 126.773C63.8437 126.773 63.2073 126.341 63.2073 125.568ZM78.2991 129.273C81.1856 129.273 83.0948 127.727 83.0948 125.409C83.0948 123.636 81.9811 122.386 79.9128 121.772L77.9355 121.181C77.0036 120.909 76.5945 120.568 76.5945 120.068C76.5945 119.431 77.1172 119.045 78.0036 119.045C79.2082 119.045 80.2537 119.727 80.6174 120.75L83.1402 119.568C82.3675 117.522 80.4356 116.318 78.0036 116.318C75.208 116.318 73.2989 117.886 73.2989 120.181C73.2989 121.954 74.4353 123.295 76.4581 123.863L78.5718 124.454C79.3901 124.682 79.7992 125.023 79.7992 125.545C79.7992 126.25 79.2537 126.659 78.2991 126.659C76.9581 126.659 75.8217 125.863 75.1853 124.523L72.6852 125.704C73.4125 127.886 75.5717 129.273 78.2991 129.273ZM85.1324 115.477H88.5416V112.067H85.1324V115.477ZM85.1324 129H88.5416V116.59H85.1324V129Z" fill="#4B8579"/>
<g clip-path="url(#clip0_1745_8163)">
<path d="M33.716 33.7151V25.2863H67.4311V33.7151H33.716ZM21.0728 92.7164C19.9551 92.7164 18.8832 92.2724 18.0928 91.4821C17.3025 90.6917 16.8585 89.6198 16.8585 88.5021V12.6432C16.8585 11.5254 17.3025 10.4535 18.0928 9.66313C18.8832 8.87278 19.9551 8.42877 21.0728 8.42877H84.2886V48.4654C87.4181 49.7825 90.276 51.6687 92.7174 54.0284V0H21.0728C17.7197 0 14.5038 1.33204 12.1328 3.70309C9.76173 6.07414 8.42969 9.28998 8.42969 12.6432V88.5021C8.42969 91.8552 9.76173 95.0711 12.1328 97.4421C14.5038 99.8132 17.7197 101.145 21.0728 101.145H73.7526C70.0669 101.145 66.4195 100.398 63.0304 98.9491C59.6413 97.5004 56.5808 95.3803 54.0335 92.7164H21.0728ZM95.0058 100.964L83.8082 89.7664C80.8041 91.6837 77.3165 92.7069 73.7526 92.7164C70.0018 92.7164 66.3351 91.6042 63.2164 89.5203C60.0977 87.4364 57.6669 84.4745 56.2315 81.0092C54.7961 77.5438 54.4206 73.7307 55.1523 70.0519C55.8841 66.3731 57.6903 62.9939 60.3426 60.3416C62.9948 57.6894 66.374 55.8831 70.0528 55.1514C73.7316 54.4196 77.5448 54.7952 81.0101 56.2306C84.4755 57.666 87.4374 60.0967 89.5212 63.2155C91.6051 66.3342 92.7174 70.0008 92.7174 73.7517C92.7079 77.3155 91.6847 80.8031 89.7673 83.8072L100.965 95.0048L95.0058 100.964ZM73.7526 84.2877C75.8365 84.2877 77.8735 83.6698 79.6061 82.512C81.3387 81.3543 82.6892 79.7088 83.4866 77.7837C84.284 75.8585 84.4927 73.74 84.0862 71.6962C83.6796 69.6525 82.6762 67.7751 81.2027 66.3017C79.7292 64.8282 77.8519 63.8247 75.8081 63.4182C73.7643 63.0117 71.6459 63.2203 69.7207 64.0178C67.7955 64.8152 66.15 66.1656 64.9923 67.8982C63.8346 69.6309 63.2167 71.6679 63.2167 73.7517C63.2167 76.546 64.3267 79.2259 66.3026 81.2018C68.2785 83.1776 70.9583 84.2877 73.7526 84.2877Z" fill="#4B8579"/>
</g>
<defs>
<clipPath id="clip0_1745_8163">
<rect width="101.145" height="101.145" fill="white"/>
</clipPath>
</defs>
</svg>
