<svg width="158" height="128" viewBox="0 0 158 128" fill="none" xmlns="http://www.w3.org/2000/svg">
<path d="M1.96068 123H5.48358V118.363L7.57459 115.841L11.7112 123H15.825L9.96107 112.977L15.6886 106.067H11.2793L5.48358 113.022V106.067H1.96068V123ZM20.9334 123.273C22.5016 123.273 23.6835 122.818 24.6608 121.841V123H27.8428V114.818C27.8428 112.159 25.6609 110.318 22.5244 110.318C19.8879 110.318 17.7514 111.613 17.0241 113.681L19.7515 114.977C20.1606 113.886 21.1379 113.159 22.3653 113.159C23.638 113.159 24.4335 113.886 24.4335 114.818V115.159L21.0016 115.704C18.0241 116.181 16.5922 117.591 16.5922 119.682C16.5922 121.932 18.2514 123.273 20.9334 123.273ZM20.1151 119.568C20.1151 118.75 20.6379 118.341 21.6152 118.159L24.4335 117.659V118.045C24.4335 119.568 23.2971 120.773 21.6152 120.773C20.7515 120.773 20.1151 120.341 20.1151 119.568ZM30.3431 123H33.7523V115.75C33.7523 114.318 34.6842 113.386 36.0252 113.386C37.3662 113.386 38.298 114.318 38.298 115.75V123H41.7073V115.022C41.7073 112.204 39.7981 110.318 37.0025 110.318C35.4342 110.318 34.1615 110.886 33.5251 112.113V110.59H30.3431V123ZM47.7901 123.273C49.3584 123.273 50.5403 122.818 51.5176 121.841V123H54.6996V114.818C54.6996 112.159 52.5176 110.318 49.3811 110.318C46.7446 110.318 44.6082 111.613 43.8808 113.681L46.6083 114.977C47.0174 113.886 47.9947 113.159 49.222 113.159C50.4948 113.159 51.2903 113.886 51.2903 114.818V115.159L47.8583 115.704C44.8809 116.181 43.449 117.591 43.449 119.682C43.449 121.932 45.1082 123.273 47.7901 123.273ZM46.9719 119.568C46.9719 118.75 47.4947 118.341 48.472 118.159L51.2903 117.659V118.045C51.2903 119.568 50.1539 120.773 48.472 120.773C47.6083 120.773 46.9719 120.341 46.9719 119.568ZM57.1999 123H60.6091V105.795H57.1999V123ZM67.4379 123H78.8248V119.932H70.9608V116.045H78.3703V112.977H70.9608V109.136H78.8248V106.067H67.4379V123ZM79.5946 123H83.5493L85.9358 119.409L88.3223 123H92.2543L87.9359 116.772L92.2997 110.59H88.345L85.9358 114.136L83.5266 110.59H79.5718L83.9357 116.772L79.5946 123ZM99.7781 123.136C100.301 123.136 100.914 123.068 101.369 123V120.113C101.051 120.159 100.778 120.182 100.574 120.182C99.1417 120.182 98.4598 119.568 98.4598 118.295V113.545H101.369V110.59H98.4598V107.772H95.0506V108.681C95.0506 109.954 94.346 110.59 93.0732 110.59H92.9596V113.545H95.0506V118.523C95.0506 121.432 96.7779 123.136 99.7781 123.136ZM109.344 123.273C111.89 123.273 113.936 122.068 114.686 120.25L111.958 118.954C111.481 119.795 110.594 120.318 109.39 120.318C107.708 120.318 106.617 119.318 106.412 117.75H115.095C115.208 117.409 115.254 116.932 115.254 116.432C115.254 113 113.049 110.318 109.117 110.318C105.572 110.318 102.867 113.068 102.867 116.772C102.867 120.364 105.412 123.273 109.344 123.273ZM109.117 113.045C110.526 113.045 111.504 113.931 111.64 115.25H106.481C106.799 113.818 107.776 113.045 109.117 113.045ZM117.261 123H120.671V116.318C120.671 114.477 121.807 113.409 123.466 113.409H124.534V110.454H123.807C122.284 110.454 121.08 110.909 120.443 112.454V110.59H117.261V123ZM126.029 123H129.438V115.75C129.438 114.318 130.37 113.386 131.711 113.386C133.052 113.386 133.984 114.318 133.984 115.75V123H137.393V115.022C137.393 112.204 135.484 110.318 132.688 110.318C131.12 110.318 129.847 110.886 129.211 112.113V110.59H126.029V123ZM143.476 123.273C145.044 123.273 146.226 122.818 147.203 121.841V123H150.385V114.818C150.385 112.159 148.203 110.318 145.067 110.318C142.43 110.318 140.294 111.613 139.566 113.681L142.294 114.977C142.703 113.886 143.68 113.159 144.908 113.159C146.18 113.159 146.976 113.886 146.976 114.818V115.159L143.544 115.704C140.566 116.181 139.135 117.591 139.135 119.682C139.135 121.932 140.794 123.273 143.476 123.273ZM142.657 119.568C142.657 118.75 143.18 118.341 144.158 118.159L146.976 117.659V118.045C146.976 119.568 145.839 120.773 144.158 120.773C143.294 120.773 142.657 120.341 142.657 119.568ZM152.885 123H156.295V105.795H152.885V123Z" fill="#4B8579"/>
<g clip-path="url(#clip0_1745_8157)">
<path d="M107.865 43.1192C105.661 43.1188 103.486 43.6262 101.509 44.6021C99.5324 45.578 97.8071 46.9961 96.467 48.7464L96.2155 48.6386C97.2037 45.5771 97.3518 42.3065 96.6444 39.1682C95.9369 36.03 94.3998 33.1393 92.1936 30.798C89.9874 28.4566 87.193 26.7506 84.1023 25.8581C81.0116 24.9656 77.7379 24.9193 74.6232 25.724L74.2962 25.1059C76.9063 22.7837 78.58 19.5893 79.0035 16.1214C79.427 12.6535 78.5713 9.15018 76.5968 6.268C74.6223 3.38582 71.6646 1.32261 68.2778 0.465037C64.891 -0.392537 61.3078 0.0143918 58.1996 1.60956C55.0913 3.20473 52.6715 5.87864 51.3936 9.13018C50.1157 12.3817 50.0673 15.9877 51.2577 19.2723C52.4481 22.5569 54.7954 25.2947 57.8598 26.9725C60.9241 28.6504 64.4952 29.1532 67.9037 28.3866L68.166 28.8789C64.5729 31.6362 62.1558 35.6506 61.4 40.1162C60.6442 44.5818 61.6056 49.168 64.0912 52.9541L57.3178 59.2892C54.2562 57.5976 50.6828 57.0806 47.2673 57.8349C43.8517 58.5892 40.8285 60.5632 38.7641 63.3868C36.6996 66.2105 35.7357 69.69 36.0529 73.1734C36.3701 76.6568 37.9467 79.9051 40.4872 82.3094C43.0277 84.7137 46.3577 86.1091 49.8533 86.234C53.3489 86.359 56.7702 85.205 59.4759 82.9883C62.1816 80.7716 63.9862 77.6443 64.5513 74.1924C65.1165 70.7405 64.4036 67.201 62.5461 64.2372L69.1506 58.0638C72.778 60.4884 77.1646 61.508 81.4894 60.9319C85.8143 60.3558 89.781 58.2235 92.6473 54.9341L93.6498 55.3617C93.2149 58.2631 93.6783 61.2282 94.9777 63.8586C96.2771 66.489 98.3504 68.6588 100.919 70.0764C103.488 71.4941 106.429 72.0917 109.347 71.7891C112.265 71.4865 115.021 70.2981 117.244 68.3835C119.467 66.469 121.051 63.9199 121.783 61.0789C122.515 58.2378 122.36 55.2407 121.339 52.4903C120.318 49.7398 118.48 47.3677 116.071 45.6925C113.662 44.0174 110.799 43.1194 107.865 43.1192V43.1192ZM57.5586 14.3727C57.5586 12.9513 57.98 11.5619 58.7697 10.38C59.5594 9.1982 60.6818 8.27707 61.995 7.73313C63.3082 7.18919 64.7532 7.04687 66.1472 7.32417C67.5413 7.60146 68.8218 8.28592 69.8269 9.29099C70.832 10.2961 71.5164 11.5766 71.7937 12.9707C72.071 14.3647 71.9287 15.8097 71.3848 17.1229C70.8408 18.4361 69.9197 19.5585 68.7379 20.3482C67.556 21.1379 66.1666 21.5593 64.7452 21.5593C62.8392 21.5593 61.0112 20.8022 59.6635 19.4544C58.3157 18.1067 57.5586 16.2787 57.5586 14.3727ZM50.3719 79.0524C48.9505 79.0524 47.5611 78.6309 46.3792 77.8412C45.1974 77.0516 44.2763 75.9292 43.7323 74.616C43.1884 73.3028 43.0461 71.8578 43.3234 70.4637C43.6007 69.0697 44.2851 67.7891 45.2902 66.7841C46.2953 65.779 47.5758 65.0945 48.9699 64.8172C50.3639 64.5399 51.8089 64.6822 53.1221 65.2262C54.4353 65.7701 55.5577 66.6913 56.3474 67.8731C57.1371 69.0549 57.5586 70.4444 57.5586 71.8658C57.5586 73.7718 56.8014 75.5997 55.4536 76.9475C54.1059 78.2952 52.2779 79.0524 50.3719 79.0524ZM79.1185 53.8992C76.7853 53.8946 74.5166 53.1332 72.653 51.7293C70.7895 50.3254 69.4318 48.3547 68.7837 46.1134C68.1357 43.872 68.2324 41.4808 69.0592 39.2991C69.886 37.1173 71.3984 35.2627 73.3692 34.0138L74.8316 33.234C76.3011 32.5948 77.8947 32.2913 79.4963 32.3455C81.0979 32.3997 82.6673 32.8103 84.0902 33.5474C85.5131 34.2846 86.7538 35.3297 87.7219 36.6067C88.6901 37.8837 89.3613 39.3605 89.6868 40.9296C90.0123 42.4988 89.9839 44.1207 89.6036 45.6775C89.2233 47.2342 88.5007 48.6866 87.4884 49.9289C86.4761 51.1712 85.1996 52.1722 83.7517 52.859C82.3038 53.5458 80.721 53.9011 79.1185 53.8992V53.8992ZM107.865 64.6791C106.444 64.6791 105.054 64.2576 103.872 63.468C102.69 62.6783 101.769 61.5559 101.225 60.2427C100.681 58.9295 100.539 57.4845 100.816 56.0905C101.094 54.6964 101.778 53.4159 102.783 52.4108C103.788 51.4057 105.069 50.7213 106.463 50.444C107.857 50.1667 109.302 50.309 110.615 50.8529C111.928 51.3969 113.051 52.318 113.84 53.4998C114.63 54.6817 115.052 56.0711 115.052 57.4925C115.052 59.3985 114.294 61.2265 112.947 62.5742C111.599 63.922 109.771 64.6791 107.865 64.6791Z" fill="#4B8579"/>
</g>
<defs>
<clipPath id="clip0_1745_8157">
<rect width="86.2396" height="86.2396" fill="white" transform="translate(36)"/>
</clipPath>
</defs>
</svg>
