<svg width="116" height="133" viewBox="0 0 116 133" fill="none" xmlns="http://www.w3.org/2000/svg">
<path d="M9.72832 126.273C8.51614 126.273 7.38729 126.053 6.34179 125.614C5.29628 125.174 4.37957 124.561 3.59166 123.773C2.80374 122.985 2.19007 122.06 1.75066 121C1.31124 119.939 1.09154 118.78 1.09154 117.522C1.09154 116.265 1.30367 115.106 1.72793 114.045C2.15219 112.969 2.75071 112.045 3.52347 111.272C4.29624 110.484 5.19779 109.878 6.22815 109.454C7.27365 109.014 8.41007 108.795 9.6374 108.795C10.8647 108.795 11.9633 108.999 12.933 109.408C13.9179 109.817 14.7513 110.363 15.4331 111.045C16.115 111.727 16.5999 112.484 16.8878 113.318L13.774 114.818C13.4861 113.999 12.9785 113.325 12.2512 112.795C11.539 112.249 10.6678 111.977 9.6374 111.977C8.63735 111.977 7.75852 112.211 7.00091 112.681C6.2433 113.151 5.65236 113.802 5.2281 114.636C4.81899 115.454 4.61443 116.416 4.61443 117.522C4.61443 118.628 4.83414 119.598 5.27356 120.432C5.71297 121.265 6.31148 121.916 7.0691 122.386C7.84186 122.856 8.72827 123.091 9.72832 123.091C10.5011 123.091 11.2208 122.947 11.8875 122.659C12.5694 122.356 13.1148 121.924 13.524 121.363C13.9482 120.803 14.1603 120.129 14.1603 119.341V117.931L15.7741 119.295H9.6374V116.34H17.6832V118.136C17.6832 119.515 17.456 120.719 17.0014 121.75C16.5468 122.765 15.9332 123.614 15.1604 124.295C14.4028 124.962 13.5467 125.462 12.5921 125.795C11.6527 126.114 10.6981 126.273 9.72832 126.273ZM19.8586 126V109.067H27.018C28.1848 109.067 29.1848 109.264 30.0182 109.658C30.8516 110.052 31.4879 110.62 31.9274 111.363C32.3668 112.09 32.5865 112.977 32.5865 114.022C32.5865 114.765 32.3819 115.477 31.9728 116.159C31.5637 116.825 30.8894 117.386 29.95 117.841V116.113C30.844 116.462 31.5334 116.878 32.0183 117.363C32.5031 117.848 32.8365 118.378 33.0183 118.954C33.2002 119.515 33.2911 120.106 33.2911 120.727C33.2911 122.394 32.738 123.689 31.6319 124.614C30.5258 125.538 28.9878 126 27.018 126H19.8586ZM23.3815 122.932H27.4271C28.1393 122.932 28.7075 122.727 29.1318 122.318C29.556 121.909 29.7682 121.379 29.7682 120.727C29.7682 120.06 29.556 119.522 29.1318 119.113C28.7075 118.704 28.1393 118.5 27.4271 118.5H23.3815V122.932ZM23.3815 115.431H27.268C27.8135 115.431 28.2454 115.28 28.5636 114.977C28.8969 114.659 29.0636 114.242 29.0636 113.727C29.0636 113.212 28.8969 112.802 28.5636 112.499C28.2454 112.181 27.8135 112.022 27.268 112.022H23.3815V115.431ZM35.5509 126V109.067H39.0738V116.386H45.6651V109.067H49.188V126H45.6651V119.454H39.0738V126H35.5509ZM52.1977 126V109.067H55.7206V117.545L54.7433 117.204L61.5163 109.067H65.9256L59.2208 117.159L59.4253 114.659L66.062 126H61.9482L57.8116 118.841L55.7206 121.363V126H52.1977ZM71.8852 126V109.067H75.4081V126H71.8852ZM78.4108 126V109.067H81.82L88.1612 117.477H86.5703L92.7297 109.067H96.1389V126H92.616V112.954L94.0252 113.272L87.5021 121.682H87.0476L80.7518 113.272L81.9337 112.954V126H78.4108ZM107.278 126.273C106.066 126.273 104.937 126.053 103.892 125.614C102.846 125.174 101.93 124.561 101.142 123.773C100.354 122.985 99.7401 122.06 99.3006 121C98.8612 119.939 98.6415 118.78 98.6415 117.522C98.6415 116.265 98.8536 115.106 99.2779 114.045C99.7022 112.969 100.301 112.045 101.073 111.272C101.846 110.484 102.748 109.878 103.778 109.454C104.824 109.014 105.96 108.795 107.187 108.795C108.415 108.795 109.513 108.999 110.483 109.408C111.468 109.817 112.301 110.363 112.983 111.045C113.665 111.727 114.15 112.484 114.438 113.318L111.324 114.818C111.036 113.999 110.528 113.325 109.801 112.795C109.089 112.249 108.218 111.977 107.187 111.977C106.187 111.977 105.309 112.211 104.551 112.681C103.793 113.151 103.202 113.802 102.778 114.636C102.369 115.454 102.164 116.416 102.164 117.522C102.164 118.628 102.384 119.598 102.824 120.432C103.263 121.265 103.861 121.916 104.619 122.386C105.392 122.856 106.278 123.091 107.278 123.091C108.051 123.091 108.771 122.947 109.437 122.659C110.119 122.356 110.665 121.924 111.074 121.363C111.498 120.803 111.71 120.129 111.71 119.341V117.931L113.324 119.295H107.187V116.34H115.233V118.136C115.233 119.515 115.006 120.719 114.551 121.75C114.097 122.765 113.483 123.614 112.71 124.295C111.953 124.962 111.097 125.462 110.142 125.795C109.203 126.114 108.248 126.273 107.278 126.273Z" fill="#4B8579"/>
<g clip-path="url(#clip0_1745_8150)">
<path d="M94.5177 25.2079C94.5233 23.1093 94.1126 21.0305 93.3094 19.0917C92.5062 17.1529 91.3264 15.3927 89.8384 13.9129L80.8871 4.96152C77.8873 1.97443 73.8294 0.292717 69.5961 0.282227L34.6291 0.282227C31.4524 0.282227 28.4058 1.54416 26.1596 3.79042C23.9133 6.03668 22.6514 9.08326 22.6514 12.2599V96.104H94.5177V25.2079ZM84.1929 19.5584C84.3937 19.7762 84.5816 20.0055 84.7559 20.2451H74.5548V10.0441C74.7944 10.2183 75.0237 10.4063 75.2416 10.607L84.1929 19.5584ZM30.6365 88.1189V12.2599C30.6365 11.2011 31.0572 10.1855 31.8059 9.43677C32.5547 8.68802 33.5702 8.26737 34.6291 8.26737H66.5697V28.2302H86.5326V88.1189H30.6365ZM42.6142 36.2154H74.5548V44.2005H42.6142V36.2154ZM42.6142 52.1857H74.5548V60.1708H42.6142V52.1857ZM66.6416 67.4134L74.487 68.8746C73.7244 73.0549 70.4744 80.1337 63.1161 80.1337C60.228 80.1312 57.4285 79.136 55.1869 77.315C53.9332 76.4246 53.494 76.1411 52.5438 76.1411C51.1145 76.6831 49.8531 77.592 48.8866 78.7762L42.8977 73.518C45.3127 70.5673 48.7628 68.6495 52.5438 68.156C55.1981 68.1877 57.7625 69.1227 59.8143 70.8071C60.7091 71.6503 61.8867 72.1287 63.1161 72.1486C65.6035 72.1486 66.6296 67.4653 66.6416 67.4134Z" fill="#4B8579"/>
</g>
<defs>
<clipPath id="clip0_1745_8150">
<rect width="95.8218" height="95.8218" fill="white" transform="translate(10.6738 0.282227)"/>
</clipPath>
</defs>
</svg>
