<svg width="113" height="131" viewBox="0 0 113 131" fill="none" xmlns="http://www.w3.org/2000/svg">
<path d="M2.36862 125.542H5.89152V120.905L7.98253 118.382L12.1191 125.542H16.2329L10.369 115.518L16.0966 108.609H11.6873L5.89152 115.564V108.609H2.36862V125.542ZM23.2558 125.814C25.8014 125.814 27.8469 124.61 28.597 122.791L25.8696 121.496C25.3923 122.337 24.5059 122.86 23.3013 122.86C21.6194 122.86 20.5284 121.86 20.3239 120.291H29.0061C29.1197 119.95 29.1652 119.473 29.1652 118.973C29.1652 115.541 26.9605 112.859 23.0285 112.859C19.4829 112.859 16.7782 115.609 16.7782 119.314C16.7782 122.905 19.3238 125.814 23.2558 125.814ZM23.0285 115.587C24.4377 115.587 25.415 116.473 25.5514 117.791H20.392C20.7102 116.359 21.6876 115.587 23.0285 115.587ZM35.6275 125.814C37.1958 125.814 38.4686 125.246 39.1049 124.019V125.542H42.2869V113.132H38.8777V120.382C38.8777 121.814 37.9458 122.746 36.6048 122.746C35.2639 122.746 34.332 121.814 34.332 120.382V113.132H30.9227V120.655C30.9227 123.746 32.6046 125.814 35.6275 125.814ZM48.6198 125.814C50.188 125.814 51.3699 125.36 52.3472 124.382V125.542H55.5292V117.359C55.5292 114.7 53.3473 112.859 50.2108 112.859C47.5743 112.859 45.4378 114.155 44.7105 116.223L47.4379 117.518C47.847 116.427 48.8243 115.7 50.0517 115.7C51.3245 115.7 52.12 116.427 52.12 117.359V117.7L48.688 118.246C45.7106 118.723 44.2787 120.132 44.2787 122.223C44.2787 124.473 45.9378 125.814 48.6198 125.814ZM47.8016 122.11C47.8016 121.291 48.3243 120.882 49.3016 120.7L52.12 120.2V120.587C52.12 122.11 50.9835 123.314 49.3016 123.314C48.438 123.314 47.8016 122.882 47.8016 122.11ZM58.0295 125.542H61.4388V118.291C61.4388 116.859 62.3706 115.927 63.7116 115.927C65.0526 115.927 65.9844 116.859 65.9844 118.291V125.542H69.3937V117.564C69.3937 114.746 67.4845 112.859 64.6889 112.859C63.1207 112.859 61.8479 113.427 61.2115 114.655V113.132H58.0295V125.542ZM77.7267 130.542C81.295 130.542 83.8633 128.178 83.8633 124.882V113.132H80.6813V114.427C79.7949 113.382 78.5903 112.859 77.0675 112.859C73.6355 112.859 71.1354 115.382 71.1354 118.859C71.1354 122.36 73.6583 124.928 77.1357 124.928C78.5221 124.928 79.6358 124.519 80.4541 123.701V124.882C80.4541 126.496 79.4086 127.473 77.7267 127.473C76.2948 127.473 75.2038 126.769 74.8629 125.61L71.7036 126.723C72.4764 129.042 74.8402 130.542 77.7267 130.542ZM77.613 121.837C75.8857 121.837 74.6583 120.632 74.6583 118.905C74.6583 117.155 75.8857 115.927 77.613 115.927C79.2949 115.927 80.4541 117.132 80.4541 118.905C80.4541 120.678 79.3176 121.837 77.613 121.837ZM90.2145 125.814C91.7827 125.814 92.9646 125.36 93.9419 124.382V125.542H97.1239V117.359C97.1239 114.7 94.942 112.859 91.8055 112.859C89.169 112.859 87.0325 114.155 86.3052 116.223L89.0326 117.518C89.4417 116.427 90.419 115.7 91.6464 115.7C92.9192 115.7 93.7146 116.427 93.7146 117.359V117.7L90.2827 118.246C87.3052 118.723 85.8734 120.132 85.8734 122.223C85.8734 124.473 87.5325 125.814 90.2145 125.814ZM89.3963 122.11C89.3963 121.291 89.919 120.882 90.8963 120.7L93.7146 120.2V120.587C93.7146 122.11 92.5782 123.314 90.8963 123.314C90.0326 123.314 89.3963 122.882 89.3963 122.11ZM99.6242 125.542H103.033V118.291C103.033 116.859 103.965 115.927 105.306 115.927C106.647 115.927 107.579 116.859 107.579 118.291V125.542H110.988V117.564C110.988 114.746 109.079 112.859 106.284 112.859C104.715 112.859 103.443 113.427 102.806 114.655V113.132H99.6242V125.542Z" fill="#4B8579"/>
<g clip-path="url(#clip0_1745_8145)">
<path d="M91.7026 32.2955V28.5331C91.6973 23.1086 89.5401 17.9078 85.7044 14.0721C81.8687 10.2364 76.6679 8.07922 71.2435 8.07387H67.481V0H59.4072V8.07387H55.6447C50.7896 8.07906 46.0945 9.8107 42.3987 12.9593C38.7029 16.1079 36.2473 20.4682 35.4708 25.2608C34.6942 30.0535 35.6474 34.9661 38.1599 39.1206C40.6724 43.2751 44.5805 46.4006 49.1856 47.9386L59.4072 51.3498V80.7387H55.6447C52.3609 80.7355 49.2125 79.4296 46.8905 77.1076C44.5685 74.7856 43.2626 71.6372 43.2594 68.3534V64.591H35.1855V68.3534C35.1909 73.7779 37.3481 78.9786 41.1838 82.8143C45.0195 86.65 50.2203 88.8073 55.6447 88.8126H59.4072V96.8865H67.481V88.8126H71.2435C76.0986 88.8074 80.7937 87.0758 84.4895 83.9272C88.1853 80.7786 90.6409 76.4183 91.4174 71.6257C92.194 66.833 91.2408 61.9204 88.7283 57.7659C86.2158 53.6114 82.3077 50.4858 77.7026 48.9479L67.481 45.5366V16.1477H71.2435C74.5273 16.151 77.6757 17.4569 79.9977 19.7789C82.3197 22.1009 83.6256 25.2493 83.6288 28.5331V32.2955H91.7026ZM75.1512 56.6019C77.9418 57.5307 80.3108 59.4222 81.8342 61.938C83.3577 64.4537 83.9361 67.4295 83.4661 70.3328C82.996 73.2361 81.5082 75.8774 79.2688 77.7839C77.0293 79.6905 74.1845 80.7379 71.2435 80.7387H67.481V54.0425L75.1512 56.6019ZM59.4072 42.844L51.737 40.2846C48.9464 39.3558 46.5774 37.4643 45.054 34.9485C43.5305 32.4327 42.9521 29.4569 43.4221 26.5537C43.8922 23.6504 45.38 21.0091 47.6194 19.1026C49.8589 17.196 52.7037 16.1486 55.6447 16.1477H59.4072V42.844Z" fill="#4B8579"/>
</g>
<defs>
<clipPath id="clip0_1745_8145">
<rect width="96.8865" height="96.8865" fill="white" transform="translate(15)"/>
</clipPath>
</defs>
</svg>
