<svg width="99" height="152" viewBox="0 0 99 152" fill="none" xmlns="http://www.w3.org/2000/svg">
<path d="M8.03626 124.273C11.6046 124.273 14.082 122.182 14.082 119.204C14.082 116.931 12.741 115.363 10.0136 114.477L6.76347 113.431C5.74069 113.09 5.21794 112.499 5.21794 111.704C5.21794 110.613 6.17253 109.863 7.60442 109.863C9.24086 109.863 10.5818 110.818 11.2182 112.386L14.082 111.09C13.1274 108.431 10.65 106.795 7.60442 106.795C4.12698 106.795 1.7405 108.863 1.7405 111.84C1.7405 114.113 3.1042 115.75 5.80888 116.636L9.12722 117.727C10.15 118.068 10.6273 118.613 10.6273 119.409C10.6273 120.5 9.69543 121.204 8.26354 121.204C6.44527 121.204 4.85429 120.091 4.01334 118.227L1.12683 119.523C2.10415 122.454 4.83156 124.273 8.03626 124.273ZM22.3201 124.273C24.8657 124.273 26.9113 123.068 27.6613 121.25L24.9339 119.954C24.4566 120.795 23.5702 121.318 22.3656 121.318C20.6837 121.318 19.5927 120.318 19.3882 118.75H28.0704C28.1841 118.409 28.2295 117.932 28.2295 117.432C28.2295 114 26.0249 111.318 22.0929 111.318C18.5472 111.318 15.8426 114.068 15.8426 117.772C15.8426 121.364 18.3881 124.273 22.3201 124.273ZM22.0929 114.045C23.502 114.045 24.4793 114.931 24.6157 116.25H19.4564C19.7746 114.818 20.7519 114.045 22.0929 114.045ZM30.2371 124H33.6463V116.75C33.6463 115.318 34.4646 114.386 35.8055 114.386C37.1465 114.386 37.9647 115.318 37.9647 116.75V124H41.374V116.75C41.374 115.318 42.1922 114.386 43.5332 114.386C44.8741 114.386 45.6924 115.318 45.6924 116.75V124H49.1016V116.022C49.1016 113.204 47.1924 111.318 44.5105 111.318C42.8968 111.318 41.5558 111.931 40.6694 113.227C39.9648 112.045 38.5329 111.318 36.8965 111.318C35.3282 111.318 34.0554 111.886 33.4191 113.113V111.59H30.2371V124ZM51.3452 110.477H54.7544V107.067H51.3452V110.477ZM51.3452 124H54.7544V111.59H51.3452V124ZM57.2492 124H60.6585V116.75C60.6585 115.318 61.5903 114.386 62.9313 114.386C64.2723 114.386 65.2041 115.318 65.2041 116.75V124H68.6134V116.022C68.6134 113.204 66.7042 111.318 63.9086 111.318C62.3404 111.318 61.0676 111.886 60.4312 113.113V111.59H57.2492V124ZM74.6963 124.273C76.2645 124.273 77.4464 123.818 78.4237 122.841V124H81.6057V115.818C81.6057 113.159 79.4238 111.318 76.2872 111.318C73.6508 111.318 71.5143 112.613 70.787 114.681L73.5144 115.977C73.9235 114.886 74.9008 114.159 76.1281 114.159C77.4009 114.159 78.1964 114.886 78.1964 115.818V116.159L74.7644 116.704C71.787 117.181 70.3551 118.591 70.3551 120.682C70.3551 122.932 72.0143 124.273 74.6963 124.273ZM73.878 120.568C73.878 119.75 74.4008 119.341 75.3781 119.159L78.1964 118.659V119.045C78.1964 120.568 77.06 121.773 75.3781 121.773C74.5144 121.773 73.878 121.341 73.878 120.568ZM84.106 124H87.5152V117.318C87.5152 115.477 88.6516 114.409 90.3108 114.409H91.3791V111.454H90.6517C89.1289 111.454 87.9243 111.909 87.2879 113.454V111.59H84.106V124ZM2.99775 147H6.52065V142.363L8.61166 139.841L12.7482 147H16.8621L10.9981 136.977L16.7257 130.067H12.3164L6.52065 137.022V130.067H2.99775V147ZM24.0668 147.273C27.726 147.273 30.7035 144.545 30.7035 140.795C30.7035 137.045 27.726 134.318 24.0668 134.318C20.3848 134.318 17.4074 137.045 17.4074 140.795C17.4074 144.545 20.3848 147.273 24.0668 147.273ZM24.0668 144.204C22.203 144.204 20.9303 142.795 20.9303 140.795C20.9303 138.818 22.203 137.386 24.0668 137.386C25.9078 137.386 27.1806 138.818 27.1806 140.795C27.1806 142.795 25.9078 144.204 24.0668 144.204ZM38.8031 152C42.3715 152 44.9398 149.636 44.9398 146.341V134.59H41.7578V135.886C40.8714 134.84 39.6668 134.318 38.144 134.318C34.712 134.318 32.2119 136.84 32.2119 140.318C32.2119 143.818 34.7347 146.386 38.2122 146.386C39.5986 146.386 40.7123 145.977 41.5305 145.159V146.341C41.5305 147.955 40.485 148.932 38.8031 148.932C37.3712 148.932 36.2802 148.227 35.9393 147.068L32.7801 148.182C33.5528 150.5 35.9166 152 38.8031 152ZM38.6895 143.295C36.9621 143.295 35.7348 142.091 35.7348 140.363C35.7348 138.613 36.9621 137.386 38.6895 137.386C40.3714 137.386 41.5305 138.591 41.5305 140.363C41.5305 142.136 40.3941 143.295 38.6895 143.295ZM47.4498 147H50.8591V139.75C50.8591 138.318 51.7909 137.386 53.1319 137.386C54.4729 137.386 55.4048 138.318 55.4048 139.75V147H58.814V139.022C58.814 136.204 56.9048 134.318 54.1092 134.318C52.541 134.318 51.2682 134.886 50.6318 136.113V134.59H47.4498V147ZM61.0558 133.477H64.465V130.067H61.0558V133.477ZM61.0558 147H64.465V134.59H61.0558V147ZM72.9374 147.136C73.4601 147.136 74.0738 147.068 74.5284 147V144.113C74.2102 144.159 73.9374 144.182 73.7329 144.182C72.301 144.182 71.6191 143.568 71.6191 142.295V137.545H74.5284V134.59H71.6191V131.772H68.2099V132.681C68.2099 133.954 67.5053 134.59 66.2325 134.59H66.1189V137.545H68.2099V142.523C68.2099 145.432 69.9372 147.136 72.9374 147.136ZM76.5262 133.477H79.9354V130.067H76.5262V133.477ZM76.5262 147H79.9354V134.59H76.5262V147ZM83.9303 147H87.3395V137.545H89.9988V134.59H87.3395V134.408C87.3395 133.318 87.9987 132.749 89.2714 132.749C89.4987 132.749 89.726 132.772 90.0215 132.817V129.908C89.7033 129.84 89.2033 129.795 88.8169 129.795C85.7258 129.795 83.9303 131.477 83.9303 134.408V134.59H81.8393V137.545H83.9303V147Z" fill="#4B8579"/>
<g clip-path="url(#clip0_1745_8164)">
<path d="M64.7643 29.4287L57.133 33.8259C55.0307 31.7078 52.3934 30.1995 49.5018 29.4617V20.6259H41.2518V29.4617C38.3601 30.1995 35.7228 31.7078 33.6205 33.8259L25.9893 29.4287L21.8643 36.5732L29.5409 40.9993C29.1218 42.4212 28.8984 43.8937 28.8768 45.3759C28.8984 46.8582 29.1218 48.3306 29.5409 49.7525L21.8643 54.1787L25.9893 61.3232L33.6205 56.9259C35.7228 59.044 38.3601 60.5523 41.2518 61.2902V70.1259H49.5018V61.2902C52.3934 60.5523 55.0307 59.044 57.133 56.9259L64.7643 61.3232L68.8893 54.1787L61.2291 49.7525C61.6426 48.3298 61.8605 46.8574 61.8768 45.3759C61.8551 43.8937 61.6317 42.4212 61.2126 40.9993L68.8893 36.5732L64.7643 29.4287ZM45.3768 53.6259C43.7451 53.6259 42.15 53.1421 40.7933 52.2355C39.4366 51.329 38.3792 50.0405 37.7548 48.533C37.1303 47.0256 36.967 45.3668 37.2853 43.7664C37.6036 42.1661 38.3893 40.6961 39.5431 39.5423C40.6969 38.3885 42.1669 37.6028 43.7673 37.2844C45.3676 36.9661 47.0264 37.1295 48.5339 37.7539C50.0414 38.3783 51.3299 39.4358 52.2364 40.7925C53.1429 42.1492 53.6268 43.7442 53.6268 45.3759C53.6268 47.5639 52.7576 49.6624 51.2104 51.2095C49.6632 52.7567 47.5648 53.6259 45.3768 53.6259ZM95.9988 45.9204C92.3043 36.1705 87.4986 26.8789 81.6768 18.2293C76.8408 11.6763 70.3157 6.55991 62.7984 3.42644C55.2812 0.292962 47.0539 -0.739895 38.9954 0.438162C31.0001 1.5749 23.453 4.82487 17.1332 9.85258C10.8134 14.8803 5.94996 21.5036 3.04488 29.0387C0.139807 36.5738 -0.701624 44.7477 0.607449 52.7167C1.91652 60.6856 5.32866 68.1608 10.4916 74.3705C11.7088 75.8323 12.3757 77.6741 12.3768 79.5763V99.0009H66.0018V86.6259H75.2706C78.2692 86.6189 81.1638 85.5263 83.4191 83.5501C85.6743 81.5739 87.1377 78.8478 87.5384 75.8762L89.3905 61.8759H99.0018V52.7514C99.0018 52.7514 96.8815 47.9417 95.9988 45.9204ZM82.1594 53.6259L79.3626 74.7913C79.2315 75.7835 78.7441 76.6942 77.9913 77.3537C77.2384 78.0132 76.2715 78.3765 75.2706 78.3759H57.7518V90.7509H20.6268V79.5763C20.6246 75.7452 19.282 72.0356 16.8318 69.0905C13.6378 65.2796 11.2425 60.8656 9.7882 56.1106C8.33388 51.3557 7.85023 46.3569 8.36598 41.4114C8.88172 36.4659 10.3863 31.6745 12.7904 27.3219C15.1945 22.9694 18.449 19.1445 22.3606 16.0746C26.2721 13.0046 30.7608 10.7523 35.56 9.45146C40.3591 8.15059 45.3708 7.82771 50.2973 8.50202C55.2237 9.17632 59.9643 10.834 64.2374 13.3767C68.5105 15.9193 72.2289 19.295 75.1716 23.303C80.516 31.4395 84.964 40.1307 88.4376 49.2245C89.0811 50.6972 89.7246 52.1739 90.3681 53.6342L82.1594 53.6259Z" fill="#4B8579"/>
</g>
<defs>
<clipPath id="clip0_1745_8164">
<rect width="99" height="99" fill="white"/>
</clipPath>
</defs>
</svg>
