<svg width="155" height="137" viewBox="0 0 155 137" fill="none" xmlns="http://www.w3.org/2000/svg">
<path d="M1.96218 131.542H5.48508V125.405H8.4625C11.9172 125.405 14.4628 123.496 14.4628 120.018C14.4628 116.473 11.9627 114.609 8.4625 114.609H1.96218V131.542ZM5.48508 122.337V117.677H8.48523C9.96257 117.677 10.9399 118.609 10.9399 120.018C10.9399 121.405 9.96257 122.337 8.48523 122.337H5.48508ZM22.0059 131.814C24.5515 131.814 26.5971 130.61 27.3471 128.791L24.6197 127.496C24.1424 128.337 23.256 128.86 22.0514 128.86C20.3695 128.86 19.2785 127.86 19.074 126.291H27.7562C27.8699 125.95 27.9153 125.473 27.9153 124.973C27.9153 121.541 25.7107 118.859 21.7787 118.859C18.233 118.859 15.5284 121.609 15.5284 125.314C15.5284 128.905 18.0739 131.814 22.0059 131.814ZM21.7787 121.587C23.1878 121.587 24.1651 122.473 24.3015 123.791H19.1422C19.4604 122.359 20.4377 121.587 21.7787 121.587ZM29.9229 131.542H33.3321V124.859C33.3321 123.018 34.4685 121.95 36.1277 121.95H37.196V118.996H36.4686C34.9458 118.996 33.7412 119.45 33.1048 120.996V119.132H29.9229V131.542ZM38.6902 136.087H42.0994V130.587C42.9858 131.382 44.2586 131.814 45.645 131.814C49.2816 131.814 51.9863 128.951 51.9863 125.337C51.9863 121.7 49.2134 118.859 45.6678 118.859C44.0541 118.859 42.7131 119.427 41.8721 120.427V119.132H38.6902V136.087ZM45.2359 128.746C43.3949 128.746 42.0994 127.36 42.0994 125.337C42.0994 123.337 43.3949 121.927 45.2359 121.927C47.1224 121.927 48.4634 123.359 48.4634 125.337C48.4634 127.337 47.1224 128.746 45.2359 128.746ZM58.4377 131.814C60.006 131.814 61.2788 131.246 61.9152 130.019V131.542H65.0972V119.132H61.6879V126.382C61.6879 127.814 60.756 128.746 59.4151 128.746C58.0741 128.746 57.1422 127.814 57.1422 126.382V119.132H53.733V126.655C53.733 129.746 55.4149 131.814 58.4377 131.814ZM72.4528 131.814C75.3393 131.814 77.2485 130.269 77.2485 127.95C77.2485 126.178 76.1348 124.928 74.0665 124.314L72.0891 123.723C71.1573 123.45 70.7482 123.109 70.7482 122.609C70.7482 121.973 71.2709 121.587 72.1573 121.587C73.3619 121.587 74.4074 122.268 74.7711 123.291L77.2939 122.109C76.5212 120.064 74.5893 118.859 72.1573 118.859C69.3617 118.859 67.4526 120.427 67.4526 122.723C67.4526 124.496 68.589 125.837 70.6118 126.405L72.7255 126.996C73.5438 127.223 73.9529 127.564 73.9529 128.087C73.9529 128.791 73.4074 129.201 72.4528 129.201C71.1118 129.201 69.9754 128.405 69.339 127.064L66.8389 128.246C67.5662 130.428 69.7254 131.814 72.4528 131.814ZM85.2636 131.678C85.7864 131.678 86.4 131.61 86.8546 131.542V128.655C86.5364 128.701 86.2637 128.723 86.0591 128.723C84.6272 128.723 83.9454 128.11 83.9454 126.837V122.087H86.8546V119.132H83.9454V116.314H80.5361V117.223C80.5361 118.495 79.8315 119.132 78.5587 119.132H78.4451V122.087H80.5361V127.064C80.5361 129.973 82.2635 131.678 85.2636 131.678ZM92.6935 131.814C94.2617 131.814 95.4436 131.36 96.4209 130.382V131.542H99.6029V123.359C99.6029 120.7 97.421 118.859 94.2845 118.859C91.648 118.859 89.5115 120.155 88.7842 122.223L91.5116 123.518C91.9207 122.427 92.898 121.7 94.1254 121.7C95.3982 121.7 96.1936 122.427 96.1936 123.359V123.7L92.7617 124.246C89.7842 124.723 88.3524 126.132 88.3524 128.223C88.3524 130.473 90.0115 131.814 92.6935 131.814ZM91.8753 128.11C91.8753 127.291 92.398 126.882 93.3753 126.7L96.1936 126.2V126.587C96.1936 128.11 95.0572 129.314 93.3753 129.314C92.5117 129.314 91.8753 128.882 91.8753 128.11ZM102.103 131.542H105.512V127.746L106.876 126.246L110.035 131.542H113.899L109.422 124.132L113.922 119.132H109.717L105.512 123.609V114.336H102.103V131.542ZM119.262 131.814C120.83 131.814 122.012 131.36 122.989 130.382V131.542H126.171V123.359C126.171 120.7 123.989 118.859 120.853 118.859C118.216 118.859 116.08 120.155 115.352 122.223L118.08 123.518C118.489 122.427 119.466 121.7 120.694 121.7C121.966 121.7 122.762 122.427 122.762 123.359V123.7L119.33 124.246C116.352 124.723 114.921 126.132 114.921 128.223C114.921 130.473 116.58 131.814 119.262 131.814ZM118.443 128.11C118.443 127.291 118.966 126.882 119.944 126.7L122.762 126.2V126.587C122.762 128.11 121.625 129.314 119.944 129.314C119.08 129.314 118.443 128.882 118.443 128.11ZM132.513 131.814C134.081 131.814 135.263 131.36 136.24 130.382V131.542H139.422V123.359C139.422 120.7 137.24 118.859 134.103 118.859C131.467 118.859 129.331 120.155 128.603 122.223L131.331 123.518C131.74 122.427 132.717 121.7 133.944 121.7C135.217 121.7 136.013 122.427 136.013 123.359V123.7L132.581 124.246C129.603 124.723 128.171 126.132 128.171 128.223C128.171 130.473 129.831 131.814 132.513 131.814ZM131.694 128.11C131.694 127.291 132.217 126.882 133.194 126.7L136.013 126.2V126.587C136.013 128.11 134.876 129.314 133.194 129.314C132.331 129.314 131.694 128.882 131.694 128.11ZM141.922 131.542H145.331V124.291C145.331 122.859 146.263 121.927 147.604 121.927C148.945 121.927 149.877 122.859 149.877 124.291V131.542H153.286V123.564C153.286 120.746 151.377 118.859 148.582 118.859C147.013 118.859 145.741 119.427 145.104 120.655V119.132H141.922V131.542Z" fill="#4B8579"/>
<path d="M38.939 92.3337C38.939 89.1941 40.1861 86.1831 42.4061 83.9632C44.6261 81.7432 47.6371 80.496 50.7767 80.496H114.7" stroke="#4B8579" stroke-width="6.62102" stroke-linecap="round" stroke-linejoin="round"/>
<path d="M50.7767 9.46997H114.7V104.172H50.7767C47.6371 104.172 44.6261 102.924 42.4061 100.704C40.1861 98.4843 38.939 95.4734 38.939 92.3338V21.3077C38.939 18.1681 40.1861 15.1571 42.4061 12.9372C44.6261 10.7172 47.6371 9.46997 50.7767 9.46997V9.46997Z" stroke="#4B8579" stroke-width="6.62102" stroke-linecap="round" stroke-linejoin="round"/>
</svg>
