<svg width="106" height="131" viewBox="0 0 106 131" fill="none" xmlns="http://www.w3.org/2000/svg">
<g clip-path="url(#clip0_1745_8147)">
<path d="M80.8589 0H16.9777C13.801 0 10.7545 1.26193 8.50819 3.50819C6.26193 5.75445 5 8.80103 5 11.9777L5 95.8218H100.822V19.9629L80.8589 0ZM32.948 7.98515H72.8738V23.9554H32.948V7.98515ZM92.8366 87.8366H12.9851V11.9777C12.9851 10.9188 13.4058 9.9033 14.1545 9.15455C14.9033 8.40579 15.9188 7.98515 16.9777 7.98515H24.9629V31.9406H80.8589V11.291L92.8366 23.2687V87.8366Z" fill="#4B8579"/>
<path d="M52.9112 39.925C49.7526 39.925 46.6649 40.8617 44.0386 42.6165C41.4123 44.3714 39.3653 46.8656 38.1566 49.7838C36.9478 52.702 36.6316 55.9131 37.2478 59.011C37.864 62.1089 39.385 64.9546 41.6185 67.188C43.852 69.4215 46.6976 70.9426 49.7956 71.5588C52.8935 72.175 56.1046 71.8587 59.0228 70.65C61.941 69.4412 64.4352 67.3943 66.19 64.768C67.9449 62.1417 68.8815 59.054 68.8815 55.8953C68.8815 51.6598 67.1989 47.5977 64.2039 44.6026C61.2089 41.6076 57.1468 39.925 52.9112 39.925V39.925ZM52.9112 63.8805C51.3319 63.8805 49.7881 63.4122 48.4749 62.5348C47.1618 61.6573 46.1383 60.4102 45.5339 58.9511C44.9295 57.492 44.7714 55.8865 45.0795 54.3375C45.3876 52.7886 46.1481 51.3657 47.2649 50.249C48.3816 49.1323 49.8044 48.3717 51.3534 48.0636C52.9024 47.7555 54.5079 47.9137 55.967 48.518C57.4261 49.1224 58.6732 50.1459 59.5506 51.459C60.428 52.7722 60.8964 54.316 60.8964 55.8953C60.8964 58.0131 60.0551 60.0442 58.5576 61.5417C57.0601 63.0392 55.029 63.8805 52.9112 63.8805Z" fill="#4B8579"/>
</g>
<rect x="5.53234" y="0.532343" width="94.7571" height="94.7571" stroke="white" stroke-width="1.06469"/>
<path d="M8.1334 124.273C7.07275 124.273 6.0727 124.083 5.13326 123.705C4.20897 123.311 3.4059 122.758 2.72405 122.045C2.05735 121.333 1.55733 120.492 1.22398 119.523L4.11048 118.227C4.53474 119.151 5.11811 119.879 5.86057 120.409C6.61818 120.939 7.45155 121.204 8.36069 121.204C8.84556 121.204 9.26224 121.129 9.61075 120.977C9.95925 120.826 10.232 120.621 10.429 120.363C10.6259 120.091 10.7244 119.773 10.7244 119.409C10.7244 119.015 10.6032 118.682 10.3608 118.409C10.1183 118.121 9.73954 117.894 9.22436 117.727L5.90602 116.636C4.55747 116.197 3.54227 115.575 2.86042 114.772C2.17857 113.954 1.83764 112.977 1.83764 111.84C1.83764 110.84 2.08008 109.961 2.56495 109.204C3.06498 108.446 3.7544 107.855 4.63323 107.431C5.52722 107.007 6.54999 106.795 7.70156 106.795C8.71676 106.795 9.6562 106.969 10.5199 107.317C11.3836 107.666 12.126 108.158 12.7473 108.795C13.3837 109.431 13.861 110.196 14.1791 111.09L11.3154 112.386C10.9972 111.598 10.5199 110.984 9.88349 110.545C9.24709 110.09 8.51978 109.863 7.70156 109.863C7.23184 109.863 6.81516 109.939 6.4515 110.09C6.08785 110.242 5.80753 110.461 5.61055 110.749C5.41357 111.022 5.31508 111.34 5.31508 111.704C5.31508 112.098 5.44388 112.446 5.70147 112.749C5.95905 113.037 6.34544 113.265 6.86061 113.431L10.1108 114.477C11.4745 114.916 12.4897 115.53 13.1564 116.318C13.8382 117.106 14.1791 118.068 14.1791 119.204C14.1791 120.189 13.9216 121.068 13.4064 121.841C12.8912 122.598 12.1791 123.197 11.2699 123.636C10.3759 124.061 9.33043 124.273 8.1334 124.273ZM22.5991 124.273C21.3718 124.273 20.2505 123.992 19.2353 123.432C18.2353 122.871 17.4322 122.106 16.8261 121.136C16.2352 120.151 15.9397 119.038 15.9397 117.795C15.9397 116.538 16.2352 115.424 16.8261 114.454C17.4322 113.484 18.2353 112.719 19.2353 112.159C20.2505 111.598 21.3718 111.318 22.5991 111.318C23.8265 111.318 24.9401 111.598 25.9402 112.159C26.9402 112.719 27.7357 113.484 28.3267 114.454C28.9328 115.424 29.2358 116.538 29.2358 117.795C29.2358 119.038 28.9328 120.151 28.3267 121.136C27.7357 122.106 26.9402 122.871 25.9402 123.432C24.9401 123.992 23.8265 124.273 22.5991 124.273ZM22.5991 121.204C23.2204 121.204 23.7583 121.06 24.2128 120.773C24.6826 120.485 25.0462 120.083 25.3038 119.568C25.5765 119.053 25.7129 118.462 25.7129 117.795C25.7129 117.128 25.5765 116.545 25.3038 116.045C25.0462 115.53 24.6826 115.128 24.2128 114.84C23.7583 114.537 23.2204 114.386 22.5991 114.386C21.9779 114.386 21.4324 114.537 20.9627 114.84C20.493 115.128 20.1217 115.53 19.849 116.045C19.5914 116.545 19.4626 117.128 19.4626 117.795C19.4626 118.462 19.5914 119.053 19.849 119.568C20.1217 120.083 20.493 120.485 20.9627 120.773C21.4324 121.06 21.9779 121.204 22.5991 121.204ZM32.5224 124V114.545H30.4314V111.59H32.5224V111.408C32.5224 110.424 32.7118 109.59 33.0906 108.908C33.4845 108.227 34.0452 107.704 34.7725 107.34C35.4998 106.976 36.3786 106.795 37.409 106.795C37.6059 106.795 37.8181 106.81 38.0454 106.84C38.2726 106.855 38.462 106.878 38.6136 106.908V109.817C38.462 109.787 38.3257 109.772 38.2045 109.772C38.0984 109.757 37.9847 109.749 37.8635 109.749C37.2271 109.749 36.7423 109.893 36.4089 110.181C36.0907 110.454 35.9316 110.863 35.9316 111.408V111.59H38.5908V114.545H35.9316V124H32.5224ZM46.9879 124.136C45.4878 124.136 44.3211 123.735 43.4877 122.932C42.6695 122.114 42.2604 120.977 42.2604 119.523V114.545H40.1694V111.59H40.283C40.9194 111.59 41.4043 111.431 41.7376 111.113C42.0862 110.795 42.2604 110.318 42.2604 109.681V108.772H45.6697V111.59H48.5789V114.545H45.6697V119.295C45.6697 119.719 45.7454 120.076 45.8969 120.363C46.0485 120.636 46.2833 120.841 46.6015 120.977C46.9197 121.113 47.3137 121.182 47.7834 121.182C47.8895 121.182 48.0107 121.174 48.147 121.159C48.2834 121.144 48.4274 121.129 48.5789 121.113V124C48.3516 124.03 48.094 124.061 47.8061 124.091C47.5182 124.121 47.2455 124.136 46.9879 124.136ZM53.8496 124L49.5766 111.59H53.0995L56.0997 120.545L54.8723 120.523L58.2134 111.59H61.1681L64.4864 120.523L63.2591 120.545L66.2593 111.59H69.8049L65.5092 124H62.5545L59.0998 114.409H60.2817L56.8043 124H53.8496ZM74.7046 124.273C73.8106 124.273 73.0379 124.129 72.3863 123.841C71.7348 123.553 71.2348 123.144 70.8863 122.614C70.5378 122.068 70.3635 121.424 70.3635 120.682C70.3635 119.985 70.5226 119.371 70.8408 118.841C71.159 118.295 71.6439 117.841 72.2954 117.477C72.9621 117.113 73.7879 116.856 74.7728 116.704L78.5684 116.091V118.591L75.3865 119.159C74.9016 119.25 74.5304 119.409 74.2728 119.636C74.0152 119.848 73.8864 120.159 73.8864 120.568C73.8864 120.947 74.0303 121.242 74.3182 121.454C74.6061 121.667 74.9622 121.773 75.3865 121.773C75.9471 121.773 76.4396 121.651 76.8638 121.409C77.2881 121.167 77.6139 120.841 77.8411 120.432C78.0836 120.007 78.2048 119.545 78.2048 119.045V115.818C78.2048 115.348 78.0154 114.954 77.6366 114.636C77.2729 114.318 76.7729 114.159 76.1365 114.159C75.5304 114.159 74.9925 114.325 74.5228 114.659C74.0682 114.992 73.7349 115.431 73.5227 115.977L70.7953 114.681C71.0378 113.984 71.4242 113.386 71.9545 112.886C72.4848 112.386 73.1212 111.999 73.8637 111.727C74.6061 111.454 75.4168 111.318 76.2956 111.318C77.3411 111.318 78.2654 111.507 79.0685 111.886C79.8715 112.265 80.4928 112.795 80.9322 113.477C81.3868 114.143 81.614 114.924 81.614 115.818V124H78.4321V122L79.2048 121.864C78.8412 122.409 78.4396 122.864 78.0002 123.227C77.5608 123.576 77.0684 123.833 76.5229 124C75.9774 124.182 75.3713 124.273 74.7046 124.273ZM84.1143 124V111.59H87.2963V114.568L87.069 114.136C87.3418 113.09 87.7888 112.386 88.41 112.022C89.0464 111.643 89.7964 111.454 90.6601 111.454H91.3874V114.409H90.3192C89.4858 114.409 88.8115 114.666 88.2964 115.181C87.7812 115.681 87.5236 116.394 87.5236 117.318V124H84.1143ZM98.8592 124.273C97.5409 124.273 96.3969 123.985 95.4272 123.409C94.4575 122.818 93.7074 122.03 93.1771 121.045C92.6468 120.06 92.3816 118.969 92.3816 117.772C92.3816 116.53 92.6543 115.424 93.1998 114.454C93.7605 113.484 94.5105 112.719 95.4499 112.159C96.3894 111.598 97.45 111.318 98.6319 111.318C99.6168 111.318 100.488 111.477 101.246 111.795C102.003 112.098 102.64 112.53 103.155 113.09C103.685 113.651 104.087 114.303 104.359 115.045C104.632 115.772 104.769 116.568 104.769 117.432C104.769 117.674 104.753 117.916 104.723 118.159C104.708 118.386 104.67 118.583 104.609 118.75H95.3136V116.25H102.678L101.064 117.432C101.215 116.78 101.208 116.204 101.041 115.704C100.874 115.189 100.579 114.787 100.155 114.5C99.7456 114.196 99.238 114.045 98.6319 114.045C98.041 114.045 97.5334 114.189 97.1091 114.477C96.6848 114.765 96.3666 115.189 96.1545 115.75C95.9424 116.31 95.859 116.992 95.9045 117.795C95.8439 118.492 95.9272 119.106 96.1545 119.636C96.3818 120.166 96.7303 120.583 97.2 120.886C97.6697 121.174 98.2379 121.318 98.9046 121.318C99.5107 121.318 100.026 121.197 100.45 120.954C100.89 120.712 101.231 120.379 101.473 119.954L104.2 121.25C103.958 121.856 103.572 122.386 103.041 122.841C102.526 123.295 101.912 123.651 101.2 123.909C100.488 124.152 99.7077 124.273 98.8592 124.273Z" fill="#4B8579"/>
<defs>
<clipPath id="clip0_1745_8147">
<rect x="5" width="95.8218" height="95.8218" fill="white"/>
</clipPath>
</defs>
</svg>
