<svg width="107" height="139" viewBox="0 0 107 139" fill="none" xmlns="http://www.w3.org/2000/svg">
<path d="M1.5085 114V97.0674H7.98609C9.15281 97.0674 10.1832 97.2719 11.0771 97.681C11.9863 98.0901 12.6984 98.6962 13.2136 99.4993C13.7288 100.302 13.9864 101.295 13.9864 102.477C13.9864 103.628 13.7212 104.613 13.1909 105.431C12.6606 106.234 11.9484 106.841 11.0544 107.25L14.9182 114H10.9635L6.78148 106.522L9.05432 107.863H5.0314V114H1.5085ZM5.0314 104.795H8.00882C8.50884 104.795 8.94068 104.697 9.30433 104.5C9.66799 104.303 9.9483 104.03 10.1453 103.681C10.3574 103.333 10.4635 102.931 10.4635 102.477C10.4635 102.007 10.3574 101.598 10.1453 101.249C9.9483 100.901 9.66799 100.628 9.30433 100.431C8.94068 100.234 8.50884 100.136 8.00882 100.136H5.0314V104.795ZM21.7076 114.273C20.3894 114.273 19.2454 113.985 18.2756 113.409C17.3059 112.818 16.5559 112.03 16.0255 111.045C15.4952 110.06 15.23 108.969 15.23 107.772C15.23 106.53 15.5028 105.424 16.0483 104.454C16.6089 103.484 17.3589 102.719 18.2984 102.159C19.2378 101.598 20.2985 101.318 21.4803 101.318C22.4652 101.318 23.3365 101.477 24.0941 101.795C24.8517 102.098 25.4881 102.53 26.0033 103.09C26.5336 103.651 26.9352 104.303 27.2079 105.045C27.4806 105.772 27.617 106.568 27.617 107.432C27.617 107.674 27.6019 107.916 27.5716 108.159C27.5564 108.386 27.5185 108.583 27.4579 108.75H18.162V106.25H25.526L23.9123 107.432C24.0638 106.78 24.0562 106.204 23.8896 105.704C23.7229 105.189 23.4274 104.787 23.0031 104.5C22.594 104.196 22.0864 104.045 21.4803 104.045C20.8894 104.045 20.3818 104.189 19.9575 104.477C19.5333 104.765 19.2151 105.189 19.003 105.75C18.7908 106.31 18.7075 106.992 18.7529 107.795C18.6923 108.492 18.7757 109.106 19.003 109.636C19.2302 110.166 19.5787 110.583 20.0485 110.886C20.5182 111.174 21.0864 111.318 21.7531 111.318C22.3592 111.318 22.8744 111.197 23.2986 110.954C23.738 110.712 24.079 110.379 24.3214 109.954L27.0488 111.25C26.8064 111.856 26.42 112.386 25.8897 112.841C25.3745 113.295 24.7608 113.651 24.0487 113.909C23.3365 114.152 22.5562 114.273 21.7076 114.273ZM29.6246 114V96.7946H33.0338V107.818L31.761 107.409L37.2386 101.59H41.4433L36.9431 106.591L41.4206 114H37.5568L33.8066 107.704L35.7839 107.204L31.9883 111.341L33.0338 109.363V114H29.6246ZM46.7831 114.273C45.8891 114.273 45.1163 114.129 44.4648 113.841C43.8132 113.553 43.3132 113.144 42.9647 112.614C42.6162 112.068 42.4419 111.424 42.4419 110.682C42.4419 109.985 42.601 109.371 42.9192 108.841C43.2374 108.295 43.7223 107.841 44.3738 107.477C45.0405 107.113 45.8663 106.856 46.8512 106.704L50.6469 106.091V108.591L47.4649 109.159C46.98 109.25 46.6088 109.409 46.3512 109.636C46.0936 109.848 45.9648 110.159 45.9648 110.568C45.9648 110.947 46.1088 111.242 46.3967 111.454C46.6846 111.667 47.0406 111.773 47.4649 111.773C48.0255 111.773 48.518 111.651 48.9423 111.409C49.3665 111.167 49.6923 110.841 49.9196 110.432C50.162 110.007 50.2832 109.545 50.2832 109.045V105.818C50.2832 105.348 50.0938 104.954 49.715 104.636C49.3514 104.318 48.8513 104.159 48.2149 104.159C47.6089 104.159 47.0709 104.325 46.6012 104.659C46.1467 104.992 45.8133 105.431 45.6012 105.977L42.8738 104.681C43.1162 103.984 43.5026 103.386 44.0329 102.886C44.5633 102.386 45.1996 101.999 45.9421 101.727C46.6846 101.454 47.4952 101.318 48.374 101.318C49.4195 101.318 50.3438 101.507 51.1469 101.886C51.95 102.265 52.5712 102.795 53.0106 103.477C53.4652 104.143 53.6925 104.924 53.6925 105.818V114H50.5105V112L51.2833 111.864C50.9196 112.409 50.5181 112.864 50.0787 113.227C49.6393 113.576 49.1468 113.833 48.6013 114C48.0558 114.182 47.4498 114.273 46.7831 114.273ZM56.1928 114V101.59H59.3748V104.613L59.0338 104.113C59.2157 103.159 59.6551 102.454 60.3521 101.999C61.0491 101.545 61.8824 101.318 62.8522 101.318C63.8825 101.318 64.7841 101.583 65.5569 102.113C66.3448 102.628 66.8372 103.325 67.0342 104.204L66.0569 104.295C66.466 103.28 67.0494 102.53 67.807 102.045C68.5646 101.56 69.451 101.318 70.4662 101.318C71.3602 101.318 72.1481 101.515 72.8299 101.909C73.5269 102.302 74.0724 102.856 74.4664 103.568C74.8603 104.265 75.0573 105.083 75.0573 106.022V114H71.6481V106.75C71.6481 106.265 71.5572 105.848 71.3753 105.5C71.2087 105.151 70.9662 104.878 70.648 104.681C70.3298 104.484 69.9434 104.386 69.4889 104.386C69.0495 104.386 68.6631 104.484 68.3297 104.681C68.0115 104.878 67.7615 105.151 67.5797 105.5C67.413 105.848 67.3297 106.265 67.3297 106.75V114H63.9204V106.75C63.9204 106.265 63.8295 105.848 63.6477 105.5C63.481 105.151 63.2386 104.878 62.9204 104.681C62.6022 104.484 62.2158 104.386 61.7612 104.386C61.3218 104.386 60.9354 104.484 60.6021 104.681C60.2839 104.878 60.0339 105.151 59.852 105.5C59.6854 105.848 59.602 106.265 59.602 106.75V114H56.1928ZM81.142 114.273C80.248 114.273 79.4752 114.129 78.8237 113.841C78.1721 113.553 77.6721 113.144 77.3236 112.614C76.9751 112.068 76.8008 111.424 76.8008 110.682C76.8008 109.985 76.9599 109.371 77.2781 108.841C77.5963 108.295 78.0812 107.841 78.7328 107.477C79.3995 107.113 80.2252 106.856 81.2101 106.704L85.0058 106.091V108.591L81.8238 109.159C81.3389 109.25 80.9677 109.409 80.7101 109.636C80.4525 109.848 80.3237 110.159 80.3237 110.568C80.3237 110.947 80.4677 111.242 80.7556 111.454C81.0435 111.667 81.3995 111.773 81.8238 111.773C82.3844 111.773 82.8769 111.651 83.3012 111.409C83.7254 111.167 84.0512 110.841 84.2785 110.432C84.5209 110.007 84.6421 109.545 84.6421 109.045V105.818C84.6421 105.348 84.4527 104.954 84.0739 104.636C83.7103 104.318 83.2102 104.159 82.5738 104.159C81.9678 104.159 81.4299 104.325 80.9601 104.659C80.5056 104.992 80.1722 105.431 79.9601 105.977L77.2327 104.681C77.4751 103.984 77.8615 103.386 78.3918 102.886C78.9222 102.386 79.5585 101.999 80.301 101.727C81.0435 101.454 81.8541 101.318 82.7329 101.318C83.7784 101.318 84.7027 101.507 85.5058 101.886C86.3089 102.265 86.9301 102.795 87.3695 103.477C87.8241 104.143 88.0514 104.924 88.0514 105.818V114H84.8694V112L85.6422 111.864C85.2785 112.409 84.877 112.864 84.4376 113.227C83.9982 113.576 83.5057 113.833 82.9602 114C82.4147 114.182 81.8087 114.273 81.142 114.273ZM90.5517 114V101.59H93.7337V104.045L93.5518 103.499C93.8397 102.757 94.3019 102.212 94.9383 101.863C95.5898 101.499 96.3474 101.318 97.2111 101.318C98.1505 101.318 98.9688 101.515 99.6658 101.909C100.378 102.302 100.931 102.856 101.325 103.568C101.719 104.265 101.916 105.083 101.916 106.022V114H98.5066V106.75C98.5066 106.265 98.4081 105.848 98.2111 105.5C98.0293 105.151 97.7642 104.878 97.4156 104.681C97.0823 104.484 96.6883 104.386 96.2338 104.386C95.7944 104.386 95.4004 104.484 95.0519 104.681C94.7034 104.878 94.4307 105.151 94.2337 105.5C94.0518 105.848 93.9609 106.265 93.9609 106.75V114H90.5517ZM16.3289 137V123.136H12.0332V120.067H24.0793V123.136H19.8518V137H16.3289ZM29.1186 137.273C28.1185 137.273 27.2624 137.061 26.5503 136.636C25.8533 136.197 25.3229 135.591 24.9593 134.818C24.5956 134.045 24.4138 133.144 24.4138 132.113V124.59H27.8231V131.841C27.8231 132.31 27.914 132.727 28.0958 133.091C28.2928 133.439 28.5655 133.712 28.914 133.909C29.2625 134.106 29.6565 134.204 30.0959 134.204C30.5505 134.204 30.9444 134.106 31.2778 133.909C31.6263 133.712 31.8914 133.439 32.0733 133.091C32.2703 132.727 32.3687 132.31 32.3687 131.841V124.59H35.778V137H32.596V134.545L32.7779 135.091C32.49 135.833 32.0202 136.386 31.3687 136.75C30.7323 137.098 29.9823 137.273 29.1186 137.273ZM44.2473 137.136C42.7473 137.136 41.5805 136.735 40.7472 135.932C39.9289 135.114 39.5198 133.977 39.5198 132.523V127.545H37.4288V124.59H37.5425C38.1789 124.59 38.6637 124.431 38.9971 124.113C39.3456 123.795 39.5198 123.318 39.5198 122.681V121.772H42.9291V124.59H45.8383V127.545H42.9291V132.295C42.9291 132.719 43.0049 133.076 43.1564 133.363C43.3079 133.636 43.5428 133.841 43.861 133.977C44.1792 134.113 44.5731 134.182 45.0428 134.182C45.1489 134.182 45.2701 134.174 45.4065 134.159C45.5429 134.144 45.6868 134.129 45.8383 134.113V137C45.611 137.03 45.3534 137.061 45.0656 137.091C44.7777 137.121 44.5049 137.136 44.2473 137.136ZM53.9955 137.273C52.7682 137.273 51.6469 136.992 50.6317 136.432C49.6316 135.871 48.8286 135.106 48.2225 134.136C47.6316 133.151 47.3361 132.038 47.3361 130.795C47.3361 129.538 47.6316 128.424 48.2225 127.454C48.8286 126.484 49.6316 125.719 50.6317 125.159C51.6469 124.598 52.7682 124.318 53.9955 124.318C55.2228 124.318 56.3365 124.598 57.3366 125.159C58.3366 125.719 59.1321 126.484 59.723 127.454C60.3291 128.424 60.6322 129.538 60.6322 130.795C60.6322 132.038 60.3291 133.151 59.723 134.136C59.1321 135.106 58.3366 135.871 57.3366 136.432C56.3365 136.992 55.2228 137.273 53.9955 137.273ZM53.9955 134.204C54.6167 134.204 55.1546 134.06 55.6092 133.773C56.0789 133.485 56.4426 133.083 56.7002 132.568C56.9729 132.053 57.1093 131.462 57.1093 130.795C57.1093 130.128 56.9729 129.545 56.7002 129.045C56.4426 128.53 56.0789 128.128 55.6092 127.84C55.1546 127.537 54.6167 127.386 53.9955 127.386C53.3743 127.386 52.8288 127.537 52.3591 127.84C51.8893 128.128 51.5181 128.53 51.2454 129.045C50.9878 129.545 50.859 130.128 50.859 130.795C50.859 131.462 50.9878 132.053 51.2454 132.568C51.5181 133.083 51.8893 133.485 52.3591 133.773C52.8288 134.06 53.3743 134.204 53.9955 134.204ZM62.6406 137V124.59H65.8226V127.568L65.5953 127.136C65.8681 126.09 66.315 125.386 66.9363 125.022C67.5727 124.643 68.3227 124.454 69.1864 124.454H69.9137V127.409H68.8455C68.0121 127.409 67.3378 127.666 66.8226 128.181C66.3075 128.681 66.0499 129.394 66.0499 130.318V137H62.6406ZM71.4079 137V124.59H74.8172V137H71.4079ZM71.4079 123.477V120.067H74.8172V123.477H71.4079ZM81.1531 137.273C80.2591 137.273 79.4863 137.129 78.8348 136.841C78.1832 136.553 77.6832 136.144 77.3347 135.614C76.9862 135.068 76.8119 134.424 76.8119 133.682C76.8119 132.985 76.971 132.371 77.2892 131.841C77.6074 131.295 78.0923 130.841 78.7439 130.477C79.4106 130.113 80.2363 129.856 81.2212 129.704L85.0169 129.091V131.591L81.8349 132.159C81.35 132.25 80.9788 132.409 80.7212 132.636C80.4636 132.848 80.3348 133.159 80.3348 133.568C80.3348 133.947 80.4788 134.242 80.7667 134.454C81.0546 134.667 81.4106 134.773 81.8349 134.773C82.3955 134.773 82.888 134.651 83.3123 134.409C83.7365 134.167 84.0623 133.841 84.2896 133.432C84.532 133.007 84.6532 132.545 84.6532 132.045V128.818C84.6532 128.348 84.4638 127.954 84.085 127.636C83.7214 127.318 83.2213 127.159 82.5849 127.159C81.9789 127.159 81.441 127.325 80.9712 127.659C80.5167 127.992 80.1833 128.431 79.9712 128.977L77.2438 127.681C77.4862 126.984 77.8726 126.386 78.4029 125.886C78.9333 125.386 79.5697 124.999 80.3121 124.727C81.0546 124.454 81.8652 124.318 82.744 124.318C83.7896 124.318 84.7138 124.507 85.5169 124.886C86.32 125.265 86.9412 125.795 87.3806 126.477C87.8352 127.143 88.0625 127.924 88.0625 128.818V137H84.8805V135L85.6533 134.864C85.2896 135.409 84.8881 135.864 84.4487 136.227C84.0093 136.576 83.5168 136.833 82.9713 137C82.4258 137.182 81.8198 137.273 81.1531 137.273ZM90.5628 137V119.795H93.972V137H90.5628Z" fill="#4B8579"/>
<g clip-path="url(#clip0_1745_8148)">
<path d="M60.1353 22.1796V1.05884L7.81089 31.3126L7.70025 31.3791C6.21733 32.3025 5.00865 33.5214 4.17473 34.9342C3.34081 36.3471 2.90576 37.9133 2.90576 39.5023C2.90576 41.0914 3.34081 42.6575 4.17473 44.0704C5.00865 45.4833 6.21733 46.7021 7.70025 47.6256L60.1353 80.2649V58.878L94.4715 80.2649V0.792664L60.1353 22.1796ZM86.8412 67.3356L52.5051 45.9454V67.3356L12.1372 42.209C11.6468 41.9036 11.2463 41.5012 10.9685 41.0349C10.6907 40.5685 10.5436 40.0514 10.5391 39.5258C10.5346 39.0003 10.673 38.4813 10.9428 38.0114C11.2126 37.5415 11.6063 37.134 12.0915 36.8223L52.5051 13.4558V35.1122L86.8412 13.7219V67.3356Z" fill="#4B8579"/>
</g>
<defs>
<clipPath id="clip0_1745_8148">
<rect width="91.563" height="79.8515" fill="white" transform="translate(2.91016 0.605591)"/>
</clipPath>
</defs>
</svg>
