<svg width="1353" height="1016" viewBox="0 0 1353 1016" fill="none" xmlns="http://www.w3.org/2000/svg">
<path d="M534.263 246.689C560.124 461.889 808.065 576.873 920.005 589.249C1063.08 605.068 1309.21 597.948 1234.7 735.093C1141.57 906.525 987.15 670.982 891.249 838.549C795.349 1006.12 491.043 822.006 581.157 633.569C671.271 445.132 330.428 553.032 173.438 357.878C47.8461 201.755 208.3 104.841 304.225 75.8996C370.129 43.1631 508.402 31.4899 534.263 246.689Z" stroke="url(#paint0_linear_287_1142)" stroke-opacity="0.5"/>
<path d="M492.626 239.74C510.866 392.17 714.855 594.45 794.046 603.189C895.264 614.357 1249.58 631.173 1196.83 728.339C1130.9 849.797 933.658 673.065 865.768 791.786C797.878 910.508 558.091 740.781 621.893 607.279C685.695 473.776 328.203 481.186 217.187 342.989C128.374 232.432 237.573 134.109 305.445 113.583C352.079 90.3772 474.385 87.3097 492.626 239.74Z" stroke="url(#paint1_linear_287_1142)" stroke-opacity="0.5"/>
<path d="M774.366 619.424C802.189 632.252 911.969 640.411 949.307 643.392C997.031 647.203 1164.61 648.192 1137.32 703.291C1103.2 772.165 963.576 691.386 892.413 733.032C829.199 770.027 800.167 833.852 710.619 789.497C668.89 768.827 626.56 696.946 630.54 645.733C633.383 609.154 648.81 583.633 681.47 570.66C706.694 564.94 746.543 606.595 774.366 619.424Z" stroke="url(#paint2_linear_287_1142)" stroke-opacity="0.5"/>
<path d="M778.063 639.951C799.213 649.524 882.317 656.365 910.584 658.841C946.713 662.007 1118.43 655.003 1098.24 694.923C1073 744.823 929.436 681.057 868.281 723.684C824.556 754.162 799.33 796.384 731.233 763.337C699.5 747.938 647.318 701.663 649.911 664.385C651.763 637.757 660.262 606.73 684.861 597.545C703.894 593.584 756.912 630.377 778.063 639.951Z" stroke="url(#paint3_linear_287_1142)" stroke-opacity="0.5"/>
<path d="M778.751 662.326C797.568 669.987 870.294 670.105 894.885 673.319C926.315 677.427 1078.83 668.958 1063.52 695.046C1044.38 727.657 916.717 676.482 866.109 702.2C829.924 720.588 800.986 773.931 740.282 747.75C711.994 735.55 671.487 690.873 671.716 665.632C671.879 647.602 674.979 624.171 695.765 619.247C712.019 617.578 759.934 654.664 778.751 662.326Z" stroke="url(#paint4_linear_287_1142)" stroke-opacity="0.5"/>
<path d="M761.852 668.32C772.9 673.043 811.548 677.062 826.133 678.684C844.776 680.757 883.759 674.033 878.148 684.337C874.13 691.717 859.672 692.516 828.959 710.822C806.999 723.911 787.815 756.622 752.203 740.404C735.608 732.847 690.339 693.175 685.629 676.258C683.002 666.825 678.485 640.701 700.281 633.546C710.004 632.079 750.803 663.596 761.852 668.32Z" stroke="url(#paint5_linear_287_1142)" stroke-opacity="0.5"/>
<path d="M758.551 677.065C766.981 680.527 796.219 684.058 807.256 685.463C821.362 687.259 850.638 683.425 846.611 690.384C843.728 695.367 832.836 695.626 810.03 707.573C793.725 716.115 779.906 738.178 752.714 726.336C740.042 720.818 705.095 692.69 701.203 680.987C699.032 674.462 695.102 656.445 711.403 651.972C718.708 651.159 750.12 673.603 758.551 677.065Z" stroke="url(#paint6_linear_287_1142)" stroke-opacity="0.5"/>
<path d="M757.829 686.665C763.436 688.91 782.778 691.449 790.08 692.452C799.413 693.734 818.691 691.718 816.117 695.974C814.274 699.022 807.088 699.05 792.18 706.165C781.52 711.252 772.667 724.734 754.574 717.078C746.143 713.51 722.734 695.684 720.023 688.396C718.511 684.332 715.698 673.138 726.404 670.568C731.216 670.155 752.223 684.421 757.829 686.665Z" stroke="url(#paint7_linear_287_1142)" stroke-opacity="0.5"/>
<path d="M441.22 175.977C470.804 225.541 467.829 246.702 472.665 265.447C482.866 304.984 481.181 332.503 501.435 364.772C528.583 408.028 540.025 408.246 554.681 452.692C573.323 509.225 398.637 422.768 319.294 388.771C263.519 364.873 196.305 313.04 222.441 216.796C233.029 177.806 305.841 142.438 327.112 135.031C341.793 126.879 412.859 128.464 441.22 175.977Z" stroke="url(#paint8_linear_287_1142)" stroke-opacity="0.5"/>
<path d="M412.39 191.736C430.39 218.607 434.417 233.893 438.599 247.48C442.782 261.066 451.034 318.517 458.433 337.531C482.268 398.787 536.391 420.269 512.722 441.297C496.622 455.601 386.153 390.483 339.339 371.18C306.431 357.611 222.614 297.691 236.449 246.746C242.053 226.107 273.683 190.246 304.791 175.036C342.652 156.525 395.135 165.976 412.39 191.736Z" stroke="url(#paint9_linear_287_1142)" stroke-opacity="0.5"/>
<path d="M397.897 200.297C412.09 217.795 415.566 227.548 419.103 236.236C422.639 244.924 427.202 305.423 433.295 317.632C452.923 356.963 476.516 390.769 459.681 403.237C448.229 411.718 384.669 386.597 352.39 367.876C287.797 330.414 250.859 286.478 259.445 254.859C264.641 235.726 295.188 194.859 317.718 186.295C345.139 175.871 384.29 183.523 397.897 200.297Z" stroke="url(#paint10_linear_287_1142)" stroke-opacity="0.5"/>
<path d="M383.78 214.584C392.803 225.528 395.027 231.616 397.286 237.04C399.546 242.464 400.459 261.402 406.478 287.809C412.344 313.546 448.209 372.73 437.621 380.438C420.805 392.68 398.983 363.72 366.939 348.793C308.119 321.392 258.86 302.012 272.59 251.451C275.824 239.54 309.46 203.542 323.685 198.264C340.997 191.841 375.131 204.093 383.78 214.584Z" stroke="url(#paint11_linear_287_1142)" stroke-opacity="0.5"/>
<path d="M367.969 239.438C374.68 246.274 376.44 249.989 378.205 253.308C379.969 256.627 381.207 267.995 386.283 283.996C391.23 299.591 418.395 336.153 411.165 340.437C399.681 347.24 383.373 329.215 360.292 319.273C317.922 301.022 282.552 287.873 290.657 258.028C292.566 250.998 315.175 230.497 325.048 227.783C337.064 224.479 361.537 232.885 367.969 239.438Z" stroke="url(#paint12_linear_287_1142)" stroke-opacity="0.5"/>
<path d="M349.338 259.46C353.252 262.837 354.328 264.623 355.396 266.224C356.465 267.824 357.448 273.183 360.688 280.812C363.846 288.247 379.918 306.082 376.003 307.902C369.785 310.792 360.238 301.925 347.129 296.669C323.065 287.021 303.031 279.945 306.771 266.17C307.652 262.925 319.711 253.904 325.138 252.888C331.743 251.651 345.587 256.223 349.338 259.46Z" stroke="url(#paint13_linear_287_1142)" stroke-opacity="0.5"/>
<path d="M345.317 262.634C347.744 264.772 348.408 265.907 349.068 266.923C349.728 267.94 350.319 271.353 352.309 276.205C354.248 280.934 364.2 292.243 361.75 293.419C357.86 295.289 351.941 289.672 343.786 286.374C328.816 280.32 316.348 275.889 318.738 267.089C319.301 265.016 326.86 259.213 330.249 258.542C334.374 257.726 342.991 260.585 345.317 262.634Z" stroke="url(#paint14_linear_287_1142)" stroke-opacity="0.5"/>
<defs>
<linearGradient id="paint0_linear_287_1142" x1="1257.35" y1="665.75" x2="95.2419" y2="350.173" gradientUnits="userSpaceOnUse">
<stop stop-color="#4B8579"/>
<stop offset="1" stop-color="#5EA496" stop-opacity="0.76"/>
</linearGradient>
<linearGradient id="paint1_linear_287_1142" x1="1221.81" y1="641.416" x2="154.419" y2="351.559" gradientUnits="userSpaceOnUse">
<stop stop-color="#4B8579"/>
<stop offset="1" stop-color="#5EA496" stop-opacity="0.76"/>
</linearGradient>
<linearGradient id="paint2_linear_287_1142" x1="1116.07" y1="783.904" x2="626.741" y2="651.023" gradientUnits="userSpaceOnUse">
<stop stop-color="#4B8579"/>
<stop offset="1" stop-color="#5EA496" stop-opacity="0.76"/>
</linearGradient>
<linearGradient id="paint3_linear_287_1142" x1="1079.29" y1="766.084" x2="650.934" y2="649.762" gradientUnits="userSpaceOnUse">
<stop stop-color="#4B8579"/>
<stop offset="1" stop-color="#5EA496" stop-opacity="0.76"/>
</linearGradient>
<linearGradient id="paint4_linear_287_1142" x1="1047.15" y1="756.516" x2="671.147" y2="654.411" gradientUnits="userSpaceOnUse">
<stop stop-color="#4B8579"/>
<stop offset="1" stop-color="#5EA496" stop-opacity="0.76"/>
</linearGradient>
<linearGradient id="paint5_linear_287_1142" x1="867.296" y1="724.856" x2="678.255" y2="673.521" gradientUnits="userSpaceOnUse">
<stop stop-color="#4B8579"/>
<stop offset="1" stop-color="#5EA496" stop-opacity="0.76"/>
</linearGradient>
<linearGradient id="paint6_linear_287_1142" x1="839.235" y1="717.97" x2="695.584" y2="678.961" gradientUnits="userSpaceOnUse">
<stop stop-color="#4B8579"/>
<stop offset="1" stop-color="#5EA496" stop-opacity="0.76"/>
</linearGradient>
<linearGradient id="paint7_linear_287_1142" x1="811.583" y1="712.952" x2="716.29" y2="687.074" gradientUnits="userSpaceOnUse">
<stop stop-color="#4B8579"/>
<stop offset="1" stop-color="#5EA496" stop-opacity="0.76"/>
</linearGradient>
<linearGradient id="paint8_linear_287_1142" x1="589.22" y1="339.787" x2="216.525" y2="238.58" gradientUnits="userSpaceOnUse">
<stop stop-color="#4B8579"/>
<stop offset="1" stop-color="#5EA496" stop-opacity="0.76"/>
</linearGradient>
<linearGradient id="paint9_linear_287_1142" x1="544.842" y1="335.066" x2="235.292" y2="251.006" gradientUnits="userSpaceOnUse">
<stop stop-color="#4B8579"/>
<stop offset="1" stop-color="#5EA496" stop-opacity="0.76"/>
</linearGradient>
<linearGradient id="paint10_linear_287_1142" x1="486.405" y1="316.261" x2="259.503" y2="254.645" gradientUnits="userSpaceOnUse">
<stop stop-color="#4B8579"/>
<stop offset="1" stop-color="#5EA496" stop-opacity="0.76"/>
</linearGradient>
<linearGradient id="paint11_linear_287_1142" x1="457.771" y1="309.672" x2="270.583" y2="258.84" gradientUnits="userSpaceOnUse">
<stop stop-color="#4B8579"/>
<stop offset="1" stop-color="#5EA496" stop-opacity="0.76"/>
</linearGradient>
<linearGradient id="paint12_linear_287_1142" x1="423.167" y1="298.695" x2="289.472" y2="262.39" gradientUnits="userSpaceOnUse">
<stop stop-color="#4B8579"/>
<stop offset="1" stop-color="#5EA496" stop-opacity="0.76"/>
</linearGradient>
<linearGradient id="paint13_linear_287_1142" x1="381.605" y1="288.653" x2="306.225" y2="268.183" gradientUnits="userSpaceOnUse">
<stop stop-color="#4B8579"/>
<stop offset="1" stop-color="#5EA496" stop-opacity="0.76"/>
</linearGradient>
<linearGradient id="paint14_linear_287_1142" x1="365.324" y1="281.121" x2="318.389" y2="268.375" gradientUnits="userSpaceOnUse">
<stop stop-color="#4B8579"/>
<stop offset="1" stop-color="#5EA496" stop-opacity="0.76"/>
</linearGradient>
</defs>
</svg>
